<?xml version="1.0" encoding="utf-8"?>
<!-- Generator: Adobe Illustrator 21.1.0, SVG Export Plug-In . SVG Version: 6.00 Build 0)  -->
<svg version="1.1" id="Outline" xmlns="http://www.w3.org/2000/svg" xmlns:xlink="http://www.w3.org/1999/xlink" x="0px" y="0px"
	 viewBox="0 0 140.28418 120.34891" style="enable-background:new 0 0 140.28418 120.34891;" xml:space="preserve">
<style type="text/css">
	.st0{fill:none;stroke:#000000;stroke-width:4;stroke-miterlimit:10;}
</style>
<g>
	<path d="M140.28418,0.69781c-8.69005,7.75667-17.09262,15.79913-25.05089,24.24526
		c-7.94569,8.4552-15.55867,17.1964-22.70093,26.29317c-3.59088,4.53105-7.09398,9.12695-10.46091,13.81848
		c-3.37402,4.68535-6.65372,9.43578-9.75259,14.30124c-6.20448,9.73607-11.69379,19.85741-17.60236,29.72704l-3.54115,5.91507
		l-4.05681-5.27385c-2.59296-3.37083-5.20969-6.7282-7.87206-10.06029c-2.66879-3.32622-5.383-6.62512-8.12762-9.91626
		c-1.36591-1.6519-2.75438-3.28773-4.16349-4.90848c-1.39118-1.63904-2.78661-3.28122-4.21326-4.89799
		c-2.81152-3.27943-5.70564-6.49788-8.53229-9.84384l0.58032-0.68793c3.78497,2.2352,7.36983,4.75505,10.89451,7.3676
		c1.74149,1.32916,3.47852,2.6713,5.1831,4.05417c1.6864,1.4014,3.35785,2.82423,5.01224,4.26967
		c3.29772,2.90178,6.4785,5.93965,9.54674,9.0903c3.07379,3.14554,6.03524,6.40561,8.85841,9.78224l-7.59772,0.64122
		c5.43679-10.48512,12.22926-20.19897,19.2462-29.65323c7.01492-9.46216,14.28214-18.72274,22.10744-27.49181
		c7.81461-8.77346,16.03917-17.16347,24.68997-25.06609C121.36307,14.48382,130.34541,6.96988,139.71582,0L140.28418,0.69781z"/>
</g>
<polyline class="st0" points="102,24.34891 102,18.34891 2,18.34891 2,118.34891 102,118.34891 102,49.34891 "/>
</svg>
