<?xml version="1.0" encoding="utf-8"?>
<!-- Generator: Adobe Illustrator 21.1.0, SVG Export Plug-In . SVG Version: 6.00 Build 0)  -->
<svg version="1.1" id="Layer_1" xmlns="http://www.w3.org/2000/svg" xmlns:xlink="http://www.w3.org/1999/xlink" x="0px" y="0px"
	 viewBox="0 0 159.14972 82.66528" style="enable-background:new 0 0 159.14972 82.66528;" xml:space="preserve">
<style type="text/css">
	.st0{fill:#423226;}
	.st1{fill:#23381B;}
	.st2{fill:#BBBDAA;}
	.st3{fill:#7A7F59;}
	.st4{fill:#AEB799;}
</style>
<g>
	<path class="st0" d="M159.02118,31.32433c-5.45502-1.23631-11.0264-1.9166-16.5636-1.78826
		c-2.76779,0.05807-5.52005,0.3567-8.2258,0.84798c-1.35101,0.258-2.69272,0.55437-4.01578,0.91847l-4.00813,1.16474
		c-5.32848,1.60329-10.56854,3.4852-15.67009,5.66515c-5.07817,2.19389-10.11026,4.64307-14.69385,7.52966
		c-0.56,0.36972-1.09634,0.73358-1.58397,1.10786l-1.59134,1.28279c-0.53914,0.41785-1.03632,0.87816-1.54971,1.32076
		c-0.51538,0.44075-1.01909,0.89229-1.50169,1.36383c-1.96952,1.85461-3.74422,3.8531-5.46802,5.99094
		c-1.73,2.11165-3.51623,4.42957-5.7347,6.51869c-2.19694,2.11064-4.78301,3.80182-7.40739,5.17348
		c-5.29953,2.71394-11.11942,4.2458-16.91518,4.63387c-5.80047,0.41093-11.5697-0.2429-17.04124-1.72397l0.06949-0.49515
		c5.63428,0.05756,11.1817-0.21646,16.5163-1.2681c2.65913-0.54991,5.27152-1.21696,7.77231-2.16089
		c2.50436-0.91797,4.93689-2.00101,7.19701-3.37138c2.28706-1.32716,4.38726-2.8101,6.24792-4.58406
		c1.88132-1.75143,3.61729-3.8232,5.54882-5.95747c1.93077-2.11778,4.0312-4.19377,6.26096-6.06175
		c0.5476-0.48117,1.11257-0.93776,1.68696-1.38069c0.57254-0.44495,1.13205-0.909,1.72386-1.3221l1.75383-1.27003
		c0.64964-0.44748,1.29662-0.83745,1.92781-1.20842c5.05299-2.8728,10.25768-5.10898,15.57036-7.13364
		c5.31392-1.99573,10.73404-3.67289,16.22012-5.06028l4.13738-0.95053c1.40268-0.30116,2.81866-0.53059,4.23694-0.71818
		c2.84027-0.35046,5.69873-0.49456,8.54214-0.39253c5.69144,0.17435,11.29669,1.22501,16.6868,2.84604L159.02118,31.32433z"/>
</g>
<g>
	<path class="st0" d="M105.4949,40.14134c-7.95297-0.29959-15.82579-0.39877-23.6523,0.03195
		c-7.84722,0.41577-15.51906,1.42673-23.33166,2.78017c-3.90972,0.56764-8.08649,1.18787-12.35654,0.58235
		c-4.22598-0.63792-8.21891-2.23648-11.65992-4.58904c-3.46332-2.31625-6.36256-5.29877-8.77392-8.54135
		c-2.39361-3.26672-4.34041-6.79395-5.85552-10.47616c4.50577,6.51388,9.70341,12.6086,16.2778,16.36686l1.23797,0.67139
		c0.41987,0.2074,0.85091,0.39026,1.27394,0.58687c0.83425,0.42001,1.72453,0.70357,2.58659,1.04286
		c1.76706,0.57426,3.56626,1.01009,5.38293,1.1803c3.61911,0.41579,7.38364-0.13785,11.27215-0.77419
		c3.89276-0.57784,7.8745-1.20714,11.87186-1.54732c4.00181-0.31117,8.01404-0.50867,12.02047-0.39172
		C89.79673,37.21739,97.77312,38.20183,105.4949,40.14134z"/>
</g>
<g>
	<path class="st1" d="M83.28313,38.14202c-1.6562-4.45237-3.13081-9.03884-4.39111-13.75885
		c-0.67501-2.52803-1.27264-5.03477-1.79766-7.51886"/>
	<path class="st1" d="M83.28313,38.14201c-2.78152-0.93939-4.52132-2.341-5.93453-3.87251
		c-1.37853-1.54546-2.28661-3.27721-2.83268-5.11356c-0.54407-1.83702-0.70173-3.78918-0.33206-5.84422
		c0.38964-2.05725,1.09547-4.17317,2.91051-6.44741c2.67458,1.3209,4.23997,2.80012,5.48916,4.33801
		c1.19184,1.54944,1.98883,3.16899,2.49178,4.87751c0.48707,1.71281,0.67967,3.51049,0.46384,5.47385
		C85.28896,33.53091,84.7777,35.61621,83.28313,38.14201z"/>
</g>
<g>
	<path class="st1" d="M51.7583,72.13785c0.85429-6.79589,2.17886-12.68601,4.03598-17.51371
		c0.99467-2.58569,2.11866-4.8057,3.36154-6.68326"/>
	<path class="st1" d="M51.75829,72.13785c-2.01292-2.39845-2.81626-4.752-3.26105-7.09877
		c-0.39607-2.34062-0.23915-4.65431,0.36516-6.88292c0.61231-2.22256,1.69446-4.37131,3.34611-6.22722
		c1.68752-1.81503,3.82919-3.47305,6.9473-3.98807c0.77347,3.03438,0.99442,5.19157,1.05394,7.30229
		c0.03093,2.07562-0.22594,3.97028-0.74709,5.84515c-0.52801,1.87006-1.302,3.70856-2.48512,5.54608
		C55.74614,68.46617,54.30837,70.31879,51.75829,72.13785z"/>
</g>
<g>
	<path class="st1" d="M5.58544,39.58273c3.03927,0.3749,6.21529,0.52921,9.53453,0.44599
		c6.19727-0.15539,12.62107-1.13203,19.21836-2.82243"/>
	<path class="st1" d="M5.58544,39.58273c2.57425-1.15686,4.92862-1.74884,7.25838-2.27736
		c2.32376-0.49156,4.60121-0.8437,6.902-1.05499c2.29973-0.21799,4.62088-0.29597,7.02026-0.20561
		c2.40794,0.12328,4.86603,0.33347,7.57225,1.16153c-1.98041,2.02245-4.24712,3.27992-6.6002,4.25607
		c-2.36104,0.94392-4.83475,1.53188-7.3513,1.75752c-2.5153,0.22838-5.07507,0.10419-7.58798-0.42953
		C10.29246,42.22234,7.8117,41.33076,5.58544,39.58273z"/>
</g>
<g>
	<path class="st1" d="M0.81397,16.05455c2.481,2.51038,5.26291,4.91557,8.36513,7.20463
		c5.79208,4.27384,12.4459,7.95468,19.82729,11.10349"/>
	<path class="st1" d="M0.81397,16.05454c3.16682,0.82475,5.73842,1.98163,8.24948,3.17117
		c2.48166,1.21508,4.82544,2.51931,7.09717,3.96273c2.2723,1.44232,4.48764,2.99178,6.63888,4.784
		c2.14432,1.81297,4.27761,3.73536,6.20689,6.39024c-3.25297,0.43521-6.23401-0.02322-9.09641-0.80273
		c-2.85622-0.79739-5.54585-2.03866-8.03395-3.61703c-2.48788-1.57728-4.76453-3.51714-6.70317-5.80182
		C3.26341,21.83208,1.61145,19.23888,0.81397,16.05454z"/>
</g>
<g>
	<path class="st2" d="M52.09132,72.03312c-4.50654-3.068-9.21567-5.90427-14.13625-8.46294
		c-2.63545-1.37042-5.26942-2.62891-7.89901-3.78192"/>
	<path class="st2" d="M52.09132,72.03311c-2.56114,0.02681-4.69067-0.48386-6.73505-1.10277
		c-2.02374-0.64879-3.91022-1.47514-5.70195-2.47061c-1.79015-0.9993-3.48804-2.1593-5.13048-3.48146
		c-1.61697-1.37881-3.16268-2.93542-4.46778-5.19002c2.48958-0.43774,4.73855-0.17752,6.91625,0.26048
		c2.17742,0.44386,4.20879,1.23407,6.08698,2.29616c1.8844,1.05069,3.6255,2.35741,5.18107,3.91969
		C49.77478,67.8577,51.1733,69.64073,52.09132,72.03311z"/>
</g>
<g>
	<path class="st3" d="M53.33141,41.18839c-1.76749-5.7781-3.89655-11.46097-6.43023-17.01015
		c-1.35704-2.97212-2.79814-5.83584-4.31573-8.59551"/>
	<path class="st3" d="M53.33141,41.18839c-2.47653-1.66417-4.0827-3.51433-5.51199-5.40417
		c-1.40626-1.89507-2.47681-3.87592-3.3516-5.93912c-0.4334-1.03311-0.8131-2.08794-1.12913-3.17551
		c-0.30034-1.09549-0.63992-2.17239-0.82066-3.3365c-0.38138-2.32158-0.55065-4.76992,0.06741-7.75035
		c2.69828,1.16268,4.60923,2.85746,6.30808,4.67899c1.71213,1.81943,2.95969,3.89861,3.87617,6.11147
		c0.91447,2.21365,1.5205,4.55658,1.68554,7.02312C54.59554,35.86877,54.44914,38.42012,53.33141,41.18839z"/>
</g>
<g>
	<path class="st1" d="M30.68166,33.14631c1.0627-6.58526,1.46344-12.97898,1.10468-19.12567
		c-0.19215-3.29214-0.59762-6.43583-1.2009-9.43791"/>
	<path class="st4" d="M30.68166,33.14632c-0.84859-2.55925-1.19223-4.96222-1.44933-7.32831
		c-0.23434-2.36206-0.3268-4.67276-0.31859-6.97671c0.00295-2.30408,0.12256-4.59962,0.34885-6.94263
		c0.24933-2.34913,0.56693-4.72682,1.32285-7.31593c1.69821,2.1036,2.69229,4.47101,3.37553,6.88821
		c0.66428,2.42348,0.96475,4.91612,0.95087,7.39786c-0.01559,2.48235-0.34281,4.95602-0.99607,7.36169
		C33.23904,28.63241,32.28745,30.97968,30.68166,33.14632z"/>
</g>
<g>
	<path class="st1" d="M53.04195,41.95383c2.23032-4.68268,4.76897-8.83484,7.64953-12.36167
		c1.54282-1.88896,3.14735-3.55402,4.80739-5.00907"/>
	<path class="st4" d="M53.04195,41.95384c-0.72104-2.33247-0.62938-4.38866-0.23395-6.32408
		c0.40614-1.93185,1.21561-3.69962,2.31121-5.28396c1.10068-1.5785,2.50039-2.97581,4.22002-4.02414
		c1.72269-1.03489,3.7065-1.80583,6.15963-1.73856c-0.24372,2.43291-0.78702,4.21861-1.42699,5.88242
		c-0.64221,1.65154-1.4428,3.09431-2.39338,4.45808c-0.95918,1.35599-2.05478,2.63223-3.42703,3.81522
		C56.86503,39.91685,55.31097,41.0506,53.04195,41.95384z"/>
</g>
<g>
	<path class="st3" d="M83.07853,37.50145c1.83868-4.8579,3.48117-9.86373,4.89194-15.01714
		c0.75561-2.76015,1.42693-5.49758,2.01917-8.21073"/>
	<path class="st3" d="M83.07853,37.50145c-0.83564-2.476-0.97456-4.6339-0.92457-6.71238
		c0.06178-2.07267,0.42006-4.02319,0.97379-5.91639c0.57098-1.88839,1.33134-3.71753,2.3683-5.49627
		c1.06962-1.77238,2.3824-3.49706,4.4936-5.10283c1.14583,2.31979,1.49324,4.52066,1.59749,6.67384
		c0.11214,2.15722-0.19592,4.22755-0.79372,6.20953c-0.59991,1.9812-1.4686,3.88321-2.70103,5.64025
		C86.8478,34.54837,85.34322,36.19595,83.07853,37.50145z"/>
</g>
<g>
	<path class="st3" d="M128.93448,29.8906c2.1122-4.41067,3.70428-8.80709,4.69409-13.1681
		c0.53014-2.33574,0.87502-4.60627,1.0473-6.81357"/>
	<path class="st3" d="M128.93448,29.8906c-0.74493-2.28601-0.86185-4.16127-0.83069-5.93502
		c0.04221-1.7663,0.33575-3.37775,0.78839-4.93398c0.4603-1.55453,1.09079-3.04316,1.99091-4.53048
		c0.9133-1.4912,1.99448-2.98014,3.79279-4.58218c1.52649,1.87222,2.12967,3.84056,2.38428,5.77112
		c0.24359,1.93525,0.02875,3.83161-0.50003,5.6182c-0.53995,1.78423-1.39084,3.46745-2.62009,4.94551
		C132.69983,27.71474,131.18057,29.03188,128.93448,29.8906z"/>
</g>
<g>
	<path class="st1" d="M129.72556,30.90021c-4.08906-3.39869-7.74741-7.0516-10.89684-10.97965
		c-1.68683-2.10385-3.18791-4.23703-4.51463-6.39502"/>
	<path class="st1" d="M129.72556,30.90021c-2.55492,0.02906-4.63357-0.66356-6.52023-1.60946
		c-1.87888-0.95808-3.49533-2.2589-4.87411-3.77917c-1.36786-1.52953-2.4998-3.28538-3.243-5.27908
		c-0.73204-1.99536-1.17426-4.17393-0.77414-6.70696c2.43669,0.77908,4.19299,1.81249,5.79939,2.92329
		c1.59296,1.11465,2.94725,2.3525,4.17126,3.72086c1.22015,1.37172,2.31712,2.85918,3.24951,4.58698
		C128.46072,26.49488,129.29245,28.38342,129.72556,30.90021z"/>
</g>
<g>
	<path class="st1" d="M87.61726,51.90312c4.61895,1.10994,9.24783,2.44542,13.86797,4.03325
		c2.47453,0.85044,4.88823,1.75322,7.24261,2.70361"/>
	<path class="st1" d="M87.61726,51.90312c2.18535-1.17801,4.22668-1.53775,6.20819-1.62715
		c1.97952-0.07607,3.875,0.22743,5.68553,0.79472c1.80975,0.57011,3.53073,1.42538,5.08868,2.67128
		c1.55847,1.23866,3.01932,2.70511,4.12817,4.89801c-2.35419,0.90018-4.3564,1.07388-6.26097,1.01982
		c-1.89198-0.08307-3.66768-0.42853-5.38443-0.96791c-1.7112-0.55573-3.3588-1.30818-4.93983-2.37726
		C90.5634,55.23256,89.02561,53.94667,87.61726,51.90312z"/>
</g>
<g>
	<path class="st3" d="M88.58073,53.03894c3.00539,4.23646,6.243,8.39265,9.73238,12.43891
		c1.8689,2.16716,3.76596,4.25171,5.68702,6.25706"/>
	<path class="st3" d="M88.58073,53.03894c2.52099,0.68811,4.38924,1.7769,6.08617,2.97813
		c1.68555,1.20779,3.10426,2.59348,4.36638,4.10936c1.24847,1.52751,2.34213,3.17912,3.23961,5.03217
		c0.87398,1.87659,1.57269,3.92834,1.72723,6.57631c-2.56442-0.34354-4.58469-1.28329-6.42967-2.39821
		c-1.85274-1.11064-3.39891-2.5215-4.71011-4.12349c-1.30935-1.60333-2.40303-3.38548-3.17343-5.38863
		C88.92815,57.81464,88.40044,55.64673,88.58073,53.03894z"/>
</g>
<g>
	<path class="st1" d="M92.56718,76.50361c-2.37255-5.89613-3.96891-11.51627-4.66983-16.79604
		c-0.3754-2.82783-0.48512-5.49137-0.34776-7.99916"/>
	<path class="st4" d="M92.56718,76.5036c-1.94218-1.51041-3.30267-3.33301-4.40754-5.27599
		c-1.08791-1.94922-1.87741-4.04225-2.36092-6.21864c-0.4864-2.17393-0.65494-4.43916-0.43781-6.70311
		c0.23986-2.25883,0.82382-4.53743,2.18868-6.59746c1.1353,2.18381,1.84964,4.1649,2.50636,6.13441
		c0.63754,1.96477,1.16825,3.89896,1.6,5.87346c0.43191,1.97319,0.77089,3.98212,0.98164,6.0786
		C92.82134,71.90154,92.93211,74.06853,92.56718,76.5036z"/>
</g>
</svg>
