<?xml version="1.0" encoding="utf-8"?>
<!-- Generator: Adobe Illustrator 21.1.0, SVG Export Plug-In . SVG Version: 6.00 Build 0)  -->
<svg version="1.1" xmlns="http://www.w3.org/2000/svg" xmlns:xlink="http://www.w3.org/1999/xlink" x="0px" y="0px"
	 viewBox="0 0 1000 1000" style="enable-background:new 0 0 1000 1000;" xml:space="preserve">
<style type="text/css">
	.st0{fill:#5B4531;}
	.st1{fill:none;stroke:#5B4531;stroke-miterlimit:10;}
	.st2{fill:#23381B;}
	.st3{fill:#7A7F59;}
	.st4{fill:#BBBDAA;}
	.st5{fill:#AEB799;}
</style>
<g id="Branches">
	<g>
		<path class="st0" d="M193.6,353.5l5.9,5.3c2,1.8,3.9,3.6,5.9,5.3c4,3.4,8,7,12.1,10.2c8.1,6.7,16.7,12.9,25.5,18.7
			c2.2,1.4,4.4,2.9,6.7,4.2l6.8,4l7,3.6c2.3,1.2,4.7,2.2,7.1,3.3c9.5,4.2,19.5,7.6,29.7,9.5l3.8,0.7l3.9,0.5
			c0.6,0.1,1.3,0.2,1.9,0.3l1.9,0.2c1.3,0.1,2.6,0.2,3.9,0.3c5.2,0.3,10.6,0.4,15.9,0.9c10.7,0.9,21.4,2.7,31.6,5.9
			c10.3,3.2,20.1,7.7,29.2,13.4c9,5.8,17.3,12.7,24.4,20.6c-7.9-7.1-16.4-13.4-25.6-18.5c-9.2-5.1-19-8.9-29-11.7l-3.8-0.9l-1.9-0.5
			l-1.9-0.4c-1.3-0.3-2.6-0.6-3.8-0.8l-3.9-0.7c-5.2-0.8-10.4-1.4-15.6-1.7c-5.2-0.4-10.5-0.5-15.8-0.7c-1.3-0.1-2.7-0.2-4-0.3
			l-2-0.2c-0.7-0.1-1.3-0.2-2-0.2l-4-0.5l-4-0.7c-10.6-2-20.9-5.6-30.7-10.1c-9.7-4.6-19.1-10-27.8-16.2c-8.7-6.1-17.1-12.8-24.9-20
			c-4-3.5-7.7-7.3-11.5-11.1C200.8,361.3,197.2,357.4,193.6,353.5z"/>
	</g>
	<g>
		<path class="st0" d="M149.5,932.1c34.9,0.5,69.8-1.9,104.2-7.6c8.6-1.4,17.2-3,25.7-4.8c8.5-1.8,17-3.8,25.5-6
			c16.9-4.3,33.8-8.6,50.5-13.7c16.6-5.1,33-10.9,48.8-18.1c15.8-7.2,30.9-15.7,44.9-25.9l2.6-1.9c0.9-0.6,1.7-1.3,2.5-2l5.1-4
			c3.5-2.6,6.5-5.6,9.8-8.5l2.4-2.2l1.2-1.1l1.1-1.2l4.5-4.6c1.5-1.6,3-3.1,4.5-4.6l4.3-4.8c5.6-6.5,10.6-13.5,14.6-20.9
			c4.1-7.4,7.3-15.5,10.8-23.6c6.9-16.2,15.4-31.8,24.7-46.7l1.7-2.8l1.8-2.8l3.6-5.5c2.4-3.7,4.8-7.3,7.2-11
			c4.8-7.3,9.7-14.6,14.6-21.8c9.9-14.4,20.1-28.8,31.4-42.4c11.3-13.5,23.8-26.4,38.3-37c7.2-5.3,15-9.9,23.2-13.7
			c8.1-3.8,16.7-6.7,25.5-8.7c8.8-2,17.7-3,26.6-3.2c8.9-0.2,17.9,0.6,26.6,2c17.6,2.9,34.4,8.8,50.3,16.3
			c7.9,3.8,15.6,8.1,23.1,12.7c3.7,2.3,7.4,4.7,11,7.2c3.6,2.5,7.1,5.1,10.6,7.7l-0.5,0.7c-3.6-2.4-7.3-4.7-11.1-7
			c-3.7-2.3-7.5-4.4-11.3-6.5c-7.6-4.2-15.4-8-23.4-11.3c-8-3.4-16.1-6.3-24.4-8.7c-8.3-2.4-16.7-4.2-25.2-5.4
			c-8.5-1.1-17.1-1.6-25.6-1.2c-8.5,0.4-17,1.6-25.2,3.7c-4.1,1-8.2,2.3-12.2,3.7c-2,0.8-4,1.5-5.9,2.3c-1.9,0.9-3.9,1.7-5.8,2.6
			c-7.6,3.7-14.9,8.2-21.7,13.3c-6.8,5.1-13.3,10.7-19.3,16.8c-6.1,6.1-11.8,12.4-17.4,19.1c-11.1,13.2-21.3,27.3-31.3,41.5
			c-5,7.1-10,14.3-14.9,21.5c-2.5,3.6-5,7.2-7.3,10.8l-3.6,5.4l-1.8,2.7l-1.7,2.7c-9.3,14.6-17.8,29.7-24.8,45.5
			c-3.6,7.9-6.9,16.1-11.3,23.9c-4.4,7.9-9.7,15.1-15.6,21.8l-4.4,4.9c-1.5,1.6-3.1,3.1-4.7,4.7l-4.7,4.7l-1.2,1.2l-1.2,1.1
			l-2.5,2.2c-3.3,2.9-6.5,5.9-10.1,8.6l-5.2,4.1c-0.9,0.7-1.7,1.4-2.6,2l-2.7,1.9c-14.4,10.2-29.9,18.8-46,25.8
			c-16.1,7.1-32.7,12.8-49.6,17.7c-16.8,4.9-33.9,9-50.9,13c-8.5,2-17.1,3.9-25.7,5.6c-8.6,1.7-17.2,3.1-25.9,4.4
			c-34.6,5.1-69.7,7-104.6,6L149.5,932.1z"/>
	</g>
	<g>
		<path class="st0" d="M200.9,209.3c11.2,19,24.1,37.1,38.7,53.6c7.3,8.2,15.1,16.1,23.2,23.4c2.1,1.8,4.1,3.7,6.2,5.4l6.3,5.3
			c4.3,3.4,8.6,6.8,13.1,9.9l3.3,2.4l3.4,2.3l6.9,4.5l1.7,1.1c0.6,0.4,1.2,0.7,1.8,1l3.6,2.1l3.5,2.1c1.2,0.7,2.3,1.4,3.6,2
			c9.7,5.1,19.7,9.4,30,12.9c10.3,3.5,21,6.2,31.7,9.2c10.7,3,21.5,6.5,31.8,11.2l7.7,3.7l7.4,4.2c2.5,1.3,4.8,3,7.2,4.5l3.5,2.3
			l1.8,1.2l1.7,1.3c4.5,3.4,9.1,6.7,13.4,10.4c1.1,0.9,2.2,1.8,3.2,2.7l3.1,2.8l3.1,2.8l3,2.9c16.2,15.7,30,33.9,41.1,53.5
			c5.5,9.8,10.5,19.9,14.8,30.3c4.3,10.4,8.1,21,11.1,31.8c3.1,10.8,5.5,21.7,7.1,32.8c1.4,11.1,2.1,22.3,1.8,33.4l-1,0
			c-1.2-11-2.8-21.9-5.3-32.6c-1.2-5.3-2.7-10.6-4.2-15.9c-1.6-5.2-3.3-10.5-5.1-15.6c-1.8-5.2-3.8-10.3-5.8-15.3
			c-2.1-5.1-4.3-10.1-6.6-15c-4.6-9.9-9.7-19.5-15.4-28.8c-11.2-18.6-24.4-36-39.5-51.6c-15.1-15.5-32.3-29.3-51.7-38.7
			c-9.7-4.7-19.9-8.3-30.5-11.5c-10.5-3.2-21.3-6.2-31.8-10c-10.5-3.9-20.8-8.6-30.6-14c-1.3-0.6-2.4-1.4-3.6-2.1l-3.6-2.2l-3.6-2.2
			c-0.6-0.4-1.2-0.7-1.8-1.1l-1.7-1.2l-6.9-4.8l-3.4-2.4l-3.3-2.5c-4.5-3.3-8.8-6.9-13.1-10.5l-6.3-5.5c-2.1-1.9-4.1-3.8-6.1-5.7
			c-8-7.7-15.7-15.9-22.8-24.4c-7.1-8.5-13.8-17.4-20-26.6c-6.2-9.2-11.9-18.7-17.2-28.5L200.9,209.3z"/>
	</g>
	<g>
		<path class="st0" d="M473.8,175.3c20.2,32.3,37.2,66.7,50.8,102.4c6.7,17.9,12.5,36.1,17.4,54.6c2.5,9.3,4.4,18.7,6.4,28l5.8,28
			l5.8,28c1.9,9.3,3.8,18.7,5.6,28.1c3.5,18.8,6.4,37.8,7.3,57.1c0.4,9.7,0.3,19.4-0.6,29c-0.9,9.7-2.5,19.2-4.8,28.6
			c-4.5,18.8-11.5,36.8-20.6,53.6l-0.7-0.3c7-17.7,12.5-35.9,15.8-54.4c3.4-18.6,4.3-37.3,3-56c-1.3-18.7-4.1-37.4-7.1-56.2
			c-3-18.7-6.4-37.5-9.8-56.2l-5.2-28.1c-1.8-9.3-3.5-18.7-5.8-27.8c-4.5-18.4-9.9-36.6-16.1-54.5c-6.3-17.9-13.4-35.5-21.4-52.8
			c-4-8.6-8.2-17.1-12.6-25.6c-4.4-8.4-9-16.8-13.8-25L473.8,175.3z"/>
	</g>
	<g>
		<path class="st0" d="M787.5,936.5c-15.5-8-32.1-13.8-49.1-16.3c-4.2-0.5-8.5-1-12.7-1c-4.2-0.1-8.5,0.1-12.8,0.5
			c-4.3,0.4-8.7,0.8-13.4,0.8c-4.6,0-9.5-0.7-14-2.2c-4.5-1.4-8.9-3.6-12.8-6.3c-3.9-2.7-7.4-5.9-10.5-9.4c-6.2-7-10.8-15-14.6-23.1
			c-7.7-16.3-12.9-33.2-17.9-50c-4.8-16.9-9.5-33.6-13.9-50.7c-2.1-8.5-4.1-17.2-5.4-26.1c-0.6-4.4-1.1-8.9-1.3-13.4
			c-0.2-4.5-0.2-9,0.1-13.5c0.9-17.9,5-35.5,11.5-51.9c3.3-8.2,7.2-16.2,11.7-23.8c2.2-3.8,4.6-7.5,7.1-11.1
			c2.5-3.6,5.1-7.1,7.9-10.5c-9.3,14.8-16.9,30.6-22.1,47c-2.6,8.2-4.7,16.6-6,25c-0.7,4.2-1.2,8.5-1.6,12.7l-0.4,6.4
			c-0.1,1.1-0.1,2.1-0.1,3.2c0,1.1-0.1,2.1-0.1,3.2c0,4.3,0.1,8.5,0.5,12.7c0.4,4.2,0.9,8.4,1.6,12.6c1.5,8.4,3.5,16.7,5.9,25.1
			c2.3,8.4,4.7,16.7,7.1,25.1c2.4,8.4,4.7,16.8,7.2,25.1c2.4,8.3,4.9,16.7,7.7,24.8c2.7,8.2,5.7,16.2,9.2,24
			c3.5,7.7,7.6,15.1,12.7,21.4c5.2,6.3,11.6,11.3,19.1,14.1c3.7,1.4,7.6,2.2,11.7,2.4c4.1,0.2,8.4,0,12.8-0.1
			c4.4-0.1,8.9-0.1,13.4,0.3c4.5,0.3,8.9,1.1,13.3,1.9C756.7,919.3,773.1,926.6,787.5,936.5z"/>
	</g>
	<g>
		<path class="st0" d="M500.5,641.5c4.3,8.9,8.2,18.1,10.8,27.8c0.6,2.4,1.3,4.8,1.7,7.3c0.5,2.5,0.9,5,1.2,7.5
			c0.5,5,0.6,10.2-0.1,15.4c-0.7,5.2-2.3,10.4-5,15c-1.3,2.4-3,4.5-4.7,6.5c-1.7,2-3.6,3.8-5.5,5.5c-3.7,3.4-7.4,6.5-10.5,10
			c-3.2,3.4-5.9,7.1-8.2,11.2c-1.1,2-2.2,4.1-3.1,6.2c-0.9,2.1-1.7,4.2-2.4,6.4c-1.3,4.4-2.2,9.2-3.3,14.1l-0.9,3.7
			c-0.3,1.1-0.7,2.6-1,3.8c-0.7,2.5-1.6,4.9-2.4,7.3c-1.7,4.8-3.6,9.5-5.5,14.1c-4,9.3-8.4,18.3-13.2,27.1l-1.8,3.3l-0.9,1.6
			l-0.5,0.8l-0.6,0.9c-0.8,1.2-1.5,2.5-2.4,3.5c-0.9,1.1-1.7,2.2-2.6,3.2c-3.6,4.1-7.6,7.5-11.7,10.6c-1,0.8-2.1,1.6-3.1,2.3
			l-3.2,2.2l-3.2,2.1c-1.1,0.7-2.2,1.4-3.3,2l-3.3,2c-1.1,0.6-2.2,1.2-3.3,1.9c-2.2,1.3-4.4,2.4-6.7,3.6c-9,4.6-18.2,8.6-27.5,12.2
			c-18.7,7.2-37.8,13.1-57.1,17.8c-38.7,9.6-78.1,15.1-117.7,17.1c19.5-3.3,39-6.8,58.2-11c9.6-2.1,19.2-4.2,28.8-6.7
			c9.5-2.4,19.1-4.9,28.5-7.7c2.4-0.7,4.7-1.4,7.1-2.1c2.3-0.7,4.7-1.4,7-2.2l7-2.2l7-2.4c9.2-3.2,18.4-6.6,27.4-10.3
			c9-3.7,17.9-7.7,26.5-12.2l3.2-1.7c1.1-0.6,2.1-1.2,3.2-1.8c1-0.6,2.1-1.2,3.1-1.8l3.1-1.9c1-0.6,2-1.2,3-1.9l3-1.9
			c1.9-1.4,3.9-2.7,5.7-4.1c3.8-2.8,7.3-5.9,10.2-9.2c0.8-0.8,1.4-1.7,2.1-2.5c0.7-0.8,1.2-1.7,1.8-2.6c0.1-0.2,0.3-0.4,0.4-0.7
			l0.5-0.8l0.9-1.6l1.8-3.2c4.8-8.5,9.2-17.2,13.2-26c2-4.4,3.9-8.9,5.6-13.4c0.8-2.3,1.7-4.5,2.4-6.8c0.4-1.2,0.7-2,1-3.3l1-3.5
			c1.2-4.7,2.3-9.6,4-14.6c0.9-2.5,1.9-5,3.1-7.3c1.2-2.4,2.5-4.6,3.8-6.9c2.8-4.5,6.1-8.6,9.8-12.3c3.7-3.7,7.7-6.9,11.5-9.9
			c1.8-1.5,3.6-3.1,5.2-4.7c1.6-1.7,3.1-3.4,4.3-5.3c2.5-3.8,4.1-8.1,5.1-12.7c1-4.6,1.3-9.4,1.1-14.2c-0.1-2.4-0.3-4.8-0.6-7.2
			c-0.2-2.4-0.7-4.8-1.1-7.2c-0.4-2.4-1-4.8-1.5-7.2c-0.6-2.4-1.2-4.8-1.9-7.1c-0.7-2.4-1.4-4.7-2.1-7.1L500.5,641.5z"/>
	</g>
	<g>
		<path class="st0" d="M310.5,928.5c29.9-1.6,59.8-3.5,89.4-7.5c7.4-1.1,14.7-2.2,22-3.6c7.3-1.4,14.5-3,21.7-4.9
			c7.1-1.9,14.2-4.1,20.9-6.8c3.4-1.4,6.7-2.9,9.9-4.6c3.2-1.7,6.3-3.5,9.1-5.6c2.9-2.1,5.5-4.4,7.9-6.9c1.2-1.3,2.2-2.6,3.2-4
			c1-1.4,2-3,2.9-4.6c4-6.4,8.3-12.8,13.1-18.7c4.8-6,10.1-11.5,15.7-16.7l2.1-1.9l2.2-1.9c1.4-1.3,2.9-2.5,4.4-3.6
			c3-2.3,6.1-4.6,9.3-6.7c3.2-2.1,6.4-4.1,9.3-6.1c3-2.1,5.7-4.3,8.1-7c4.8-5.3,8.2-11.8,10.3-18.8c0.6-1.7,1-3.5,1.4-5.3
			c0.3-1.8,0.7-3.6,0.9-5.4c0.5-3.6,0.7-7.4,0.8-11.1c0-1.9,0-3.7-0.1-5.6c-0.1-1.9-0.2-3.7-0.3-5.6c-0.2-1.9-0.3-3.7-0.5-5.6
			l-0.7-5.6l1.3,5.5c0.4,1.8,0.7,3.7,1.1,5.5c0.3,1.9,0.5,3.7,0.8,5.6c0.2,1.9,0.4,3.8,0.5,5.6c0.2,3.8,0.3,7.6,0,11.4
			c-0.1,1.9-0.4,3.8-0.6,5.7c-0.3,1.9-0.6,3.8-1.1,5.7c-1.8,7.5-5.1,14.8-10.1,20.9c-1.2,1.5-2.6,3-4.1,4.3c-1.5,1.3-3,2.6-4.5,3.7
			c-3.1,2.3-6.2,4.4-9.2,6.5c-11.9,8.6-22.7,18.8-31.7,30.4c-4.5,5.8-8.6,11.8-12.5,18.2c-1,1.6-1.9,3.2-3.1,4.9
			c-1.2,1.7-2.4,3.3-3.7,4.8c-2.7,3-5.7,5.6-8.9,8c-3.2,2.3-6.6,4.3-10,6.1c-3.4,1.8-7,3.3-10.5,4.8c-7.2,2.8-14.5,5.1-21.8,6.9
			c-14.8,3.6-29.7,5.9-44.7,7.4C370.6,929.4,340.5,929.8,310.5,928.5z"/>
	</g>
	<g>
		<path class="st0" d="M563.9,847.4c3.1,7.8,6.7,15.4,11.1,22.5c2.2,3.5,4.6,7,7.2,10.2c2.6,3.2,5.4,6.3,8.5,9
			c3,2.8,6.3,5.3,9.7,7.5c0.9,0.5,1.7,1.1,2.5,1.5c0.8,0.4,1.8,0.9,2.7,1.3l5.7,2.6l23.1,10.2c7.7,3.4,15.5,6.7,23.2,10l11.5,5
			c0.9,0.4,1.8,0.7,2.6,1c0.8,0.3,1.9,0.5,2.8,0.8c1.9,0.5,3.9,1,5.8,1.4c7.8,1.5,16,2,24.2,1.4c8.2-0.5,16.4-2,24.7-3.7l0.3,0.8
			c-3.8,1.9-7.7,3.7-11.8,5.1c-2,0.7-4.1,1.3-6.2,2c-1,0.3-2.1,0.5-3.1,0.8c-1.1,0.3-2.1,0.5-3.2,0.7c-8.5,1.7-17.4,2.2-26.2,0.9
			c-2.2-0.3-4.4-0.8-6.6-1.3c-1.1-0.3-2.1-0.5-3.3-0.9c-1.2-0.4-2.3-0.8-3.3-1.2c-4-1.7-7.8-3.6-11.6-5.5
			c-7.5-3.8-15.1-7.6-22.6-11.4l-22.7-11.2l-5.7-2.9c-1-0.5-1.9-1-2.9-1.6c-1.1-0.6-1.9-1.3-2.8-1.9c-3.5-2.5-6.8-5.4-9.9-8.5
			c-3-3.1-5.8-6.4-8.3-9.9c-2.5-3.5-4.7-7.1-6.8-10.9c-4.1-7.5-7.2-15.4-9.7-23.5L563.9,847.4z"/>
	</g>
	<g>
		<path class="st0" d="M336.5,930.1c7.5-0.4,14.9-1.1,22.4-1.9c7.4-0.8,14.9-1.9,22.2-3.1c14.8-2.4,29.4-5.6,43.7-9.8
			c7.2-2,14.3-4.3,21.3-6.8c7.1-2.5,14-5.1,21.1-7.7c7-2.6,14.1-5.3,21.4-7.5c3.6-1.1,7.4-2.1,11.1-2.9c3.8-0.8,7.6-1.4,11.5-1.8
			c7.7-0.8,15.7-0.4,23.3,0.9c3.8,0.6,7.6,1.6,11.4,2.7c3.8,1.2,7.5,2.8,11,4.7c3.5,1.9,6.6,4,9.8,5.9c3.1,2,6.3,3.7,9.5,5.4
			c6.5,3.3,13.2,6.1,20.1,8.7c6.9,2.6,13.9,4.9,21.1,6.8c7.1,2,14.3,3.7,21.6,5.1c14.6,2.8,29.4,4.4,44.4,5.2l0,0.8
			c-30,3-60.9-0.7-89.8-10.4c-3.6-1.3-7.2-2.6-10.8-4c-3.6-1.4-7.1-3.1-10.5-4.8c-3.4-1.8-6.8-3.7-10-5.8c-3.2-2-6.3-4.2-9.4-5.9
			c-3.1-1.8-6.2-3.3-9.5-4.5c-0.8-0.3-1.7-0.6-2.5-0.8l-1.3-0.4l-1.3-0.3l-2.6-0.7l-2.6-0.6c-7.1-1.5-14.3-2-21.5-1.5
			c-3.6,0.3-7.2,0.7-10.8,1.4c-3.6,0.7-7.1,1.6-10.7,2.5c-7.1,2-14.2,4.4-21.3,6.9c-7.1,2.5-14.2,4.9-21.4,7.2
			c-7.2,2.3-14.4,4.4-21.7,6.3c-14.6,3.7-29.5,6.4-44.4,8.3c-14.9,1.9-29.9,3.1-45,3.3L336.5,930.1z"/>
	</g>
	<g>
		<path class="st0" d="M452.5,780.5c0.2-10.5,1.8-21,4.2-31.3c0.6-2.6,1.3-5.1,2-7.7c0.4-1.3,0.7-2.5,1.1-3.8l0.6-1.9
			c0.2-0.5,0.3-1,0.4-1.6c0.6-2.5,1.3-5.3,2.4-8c1.1-2.7,2.7-5.2,4.5-7.5c1.8-2.3,3.9-4.3,6.2-6c1.1-0.9,2.3-1.6,3.5-2.4
			c1.2-0.7,2.4-1.4,3.4-2c3.8-2.2,6.9-5.9,9.4-10.2c2.5-4.2,4.3-9,5.9-13.9c1.6-4.9,2.9-9.9,4.3-15c0,1.3,0,2.6,0,3.9
			c0,1.3-0.1,2.6-0.1,4c0,1.3-0.2,2.6-0.3,4c-0.1,1.3-0.3,2.6-0.5,4c-0.8,5.3-2.1,10.5-4.4,15.6c-1.1,2.5-2.6,5-4.3,7.3
			c-1.7,2.3-3.9,4.4-6.4,6c-1.3,0.8-2.3,1.4-3.3,2.1c-1,0.7-2,1.4-2.9,2.1c-1.9,1.5-3.5,3.1-5,4.9c-1.5,1.8-2.7,3.7-3.6,5.8
			c-1,2.1-1.6,4.3-2.3,6.9c-0.2,0.6-0.4,1.4-0.7,2.1l-0.7,1.8l-1.4,3.6c-0.9,2.4-1.8,4.8-2.6,7.3
			C458.6,760.5,455.6,770.4,452.5,780.5z"/>
	</g>
	<g>
		<path class="st0" d="M672.5,905.5c11.6-1.8,23.2-3,34.9-3.6c11.7-0.6,23.5-0.8,35.2-0.2c2.9,0.2,5.9,0.3,8.8,0.5
			c2.9,0.2,5.9,0.4,8.8,0.7c1.5,0.1,2.9,0.3,4.4,0.4l4.4,0.6c2.9,0.4,5.8,0.8,8.7,1.3c5.8,0.9,11.6,2,17.3,3.3
			c2.9,0.6,5.7,1.3,8.6,2l4.3,1.1l2.1,0.6l1.1,0.3l0.5,0.1l0.3,0.1l0.1,0c0,0,0.1,0,0,0c-0.2,0-0.3,0-0.5,0l0.8,0.1
			c7.6,2.2,15.2,4.8,22.6,7.7c3.7,1.4,7.3,3,11,4.4c3.6,1.5,7.3,2.8,11,4.1c7.4,2.6,14.9,4.6,22.5,6.4c7.6,1.7,15.4,3.1,23.2,4.2
			c-7.9-0.1-15.8-0.7-23.6-1.8c-7.9-1.1-15.6-2.8-23.3-4.9c-7.7-2.2-15.2-4.9-22.5-7.6c-3.7-1.3-7.4-2.6-11.1-3.7
			c-3.7-1.2-7.5-2.2-11.2-3.2l0.8,0.1c-0.3,0-0.5,0-0.8-0.1l-0.2-0.1l-0.3-0.1l-0.5-0.1l-1-0.3l-2.1-0.5l-4.2-1
			c-2.8-0.7-5.6-1.3-8.5-1.9c-5.7-1.2-11.4-2.4-17.1-3.3c-2.9-0.5-5.7-1-8.6-1.3l-4.3-0.6l-4.3-0.5c-2.9-0.4-5.7-0.7-8.6-1
			c-2.9-0.3-5.8-0.5-8.7-0.8c-11.6-1-23.2-1.4-34.8-1.6C695.9,905,684.2,905.2,672.5,905.5z"/>
	</g>
	<g>
		<path class="st0" d="M500,641c-4.1-7-8.2-14-12.1-21.1c-1-1.8-1.9-3.6-2.8-5.4c-0.9-1.9-1.6-3.8-2.3-5.7
			c-1.3-3.9-2.4-7.8-3.2-11.8l-0.1-0.3l0.2-0.3c4.7-7.9,8.5-16.3,11.2-25.1l1-3.3c0.3-1.1,0.5-2.2,0.8-3.3l0.4-1.7
			c0.1-0.6,0.2-1.1,0.3-1.7c0.2-1.1,0.4-2.2,0.6-3.4c0.7-4.5,1-9.1,0.9-13.6c-0.1-4.5-0.6-9.1-1.6-13.4c-0.5-2.1-1.4-4.2-2.3-6.3
			c-0.9-2.1-1.9-4.1-3-6.1c-4.4-7.9-10.1-15.2-16.4-21.7c-1.6-1.7-3.2-3.2-4.9-4.8c-1.7-1.5-3.4-3.1-5.2-4.5
			c-3.5-3-7.2-5.6-10.9-8.3c-7.6-5.1-15.5-9.7-23.8-13.7c-8.2-4-16.8-7.4-25.4-10.5c-8.6-2.9-17.6-5-26.6-6.7l0.3,0
			c-20.8-1.1-41.8,1.7-62.8,3.1c-10.5,0.8-21.1,1.3-31.7,1.5c-10.6,0.1-21.2-0.2-31.7-0.8c-21.1-1.4-42.1-4.1-62.8-8.2
			c-10.3-2.1-20.6-4.6-30.8-7.4c-5.1-1.4-10.1-2.9-15.2-4.4c-5-1.6-10-3.3-15-5c20.1,6.2,40.6,11.3,61.3,14.9
			c20.7,3.7,41.6,6.1,62.6,7.1c10.5,0.4,21,0.5,31.5,0.3c10.5-0.3,21-0.9,31.4-1.7c10.5-0.9,21-1.9,31.5-2.7
			c10.5-0.8,21.2-1.2,31.8-0.7l0.1,0l0.1,0c9.2,1.7,18.3,3.9,27.1,6.9c8.8,3.1,17.4,6.6,25.8,10.7c8.4,4.1,16.5,8.8,24.2,14.1
			c3.8,2.7,7.6,5.5,11.1,8.6c1.8,1.5,3.5,3.1,5.3,4.7c1.7,1.6,3.4,3.2,5,5c6.5,6.8,12.2,14.3,16.6,22.6c1.1,2.1,2.1,4.2,3,6.4
			c0.9,2.2,1.7,4.4,2.3,6.8c1,4.7,1.4,9.4,1.5,14.1c0,4.7-0.4,9.4-1.1,14c-0.2,1.2-0.4,2.3-0.7,3.4c-0.1,0.6-0.2,1.2-0.3,1.7
			l-0.4,1.7c-0.3,1.1-0.6,2.3-0.9,3.4L493,572c-2.8,8.9-7,17.3-12,25.2l0.1-0.5c0.7,4,1.7,7.9,2.9,11.7c0.6,1.9,1.3,3.8,2.1,5.7
			c0.8,1.8,1.7,3.7,2.6,5.5C492.3,626.7,496.2,633.8,500,641z"/>
	</g>
	<g>
		<path class="st0" d="M581.2,639.3c4.1-7.3,8.5-14.4,13.4-21.2c4.9-6.8,10.2-13.3,16-19.4c11.5-12.2,25-22.6,39.9-30.7l5.6-2.9
			c1.9-1,3.9-1.7,5.8-2.6l2.9-1.3c1-0.4,2-0.7,3-1.1c2-0.7,4-1.5,6-2.1c8.1-2.6,16.4-4.3,24.7-5.6c16.7-2.5,33.5-2.8,49.4-6.4
			c8-1.8,15.7-4.3,23.1-7.7c1.8-0.9,3.7-1.7,5.5-2.7l5.3-3c1.7-1,3.4-2.2,5.1-3.3c1.7-1.1,3.3-2.3,4.9-3.5l2.4-1.8l1.2-0.9l1.2-1
			l4.6-4c0.8-0.6,1.5-1.4,2.2-2.1l2.2-2.1l2.2-2.1l1.1-1.1l1-1.1l4.2-4.5c0.7-0.8,1.4-1.5,2.1-2.3l2-2.4l3.9-4.7
			c0.7-0.8,1.3-1.6,1.9-2.4l1.8-2.5l3.7-4.9c1.2-1.7,2.3-3.4,3.4-5.1l3.4-5.1c1.1-1.7,2.1-3.5,3.2-5.3c4.4-7,8.2-14.3,12.1-21.7
			l5.5-11.2c1-1.8,1.7-3.8,2.6-5.7l2.5-5.7l2.6-5.7l2.4-5.8c1.6-3.9,3.2-7.7,4.8-11.5l0.7,0.2c-1.2,4-2.3,8-3.6,12
			c-0.6,2-1.2,4-1.8,6l-2.1,5.9l-2.1,5.9c-0.7,2-1.4,4-2.2,5.9l-4.8,11.6c-1.7,3.9-3.5,7.6-5.3,11.4c-1.7,3.8-3.9,7.5-5.8,11.2
			c-1,1.8-2,3.7-3.1,5.5l-3.3,5.4c-1.1,1.8-2.2,3.6-3.4,5.4l-3.6,5.2l-1.8,2.6c-0.6,0.9-1.2,1.7-1.9,2.6l-4,5l-2,2.5
			c-0.7,0.8-1.4,1.6-2.1,2.4l-4.3,4.7l-1.1,1.2l-1.2,1.1l-2.3,2.2l-2.3,2.2c-0.8,0.7-1.5,1.5-2.4,2.1l-5,4.1l-1.2,1l-1.3,0.9
			l-2.6,1.9c-13.9,10-30.2,16.8-46.9,20c-16.8,3.4-33.6,3.3-49.9,5.4c-8.2,1.1-16.3,2.5-24.2,4.9c-2,0.5-3.9,1.3-5.9,1.9
			c-1,0.3-2,0.6-2.9,1l-2.9,1.2c-1.9,0.8-3.8,1.5-5.7,2.4l-5.6,2.7c-14.7,7.4-28.2,17.3-40,29.1c-11.8,11.7-21.8,25.2-30.3,39.5
			L581.2,639.3z"/>
	</g>
	<g>
		<path class="st0" d="M798.9,308.6c-1,7.6-2.2,15.2-3.6,22.8c-1.4,7.6-3.1,15.1-4.9,22.6c-3.7,15-8.1,29.8-13.3,44.3
			c-2.6,7.3-5.3,14.4-8.1,21.6c-2.8,7.2-5.7,14.4-9,21.4c-1.7,3.5-3.5,7-5.5,10.4c-2,3.4-4.1,6.7-6.4,9.9l-1.7,2.4
			c-0.6,0.8-1.2,1.5-1.8,2.3l-3.7,4.6c-0.6,0.8-1.3,1.5-1.9,2.2l-2,2.2c-1.4,1.4-2.6,3-4.1,4.3l-4.3,4.1c-1.5,1.3-3,2.5-4.6,3.8
			c-0.8,0.6-1.5,1.3-2.3,1.9l-2.4,1.7l-2.4,1.7l-1.2,0.9l-1.2,0.8l-4.9,3.2l-5,3c-1.7,1-3.4,2-5,2.9l-5.1,2.9
			c-6.8,3.7-13.4,7.4-20,11.2l-4.9,2.9l-4.8,3c-3.2,1.9-6.3,4.2-9.4,6.3c-0.8,0.5-1.6,1.1-2.3,1.6l-2.3,1.7l-4.5,3.4l-8.7,7.2
			c-5.8,4.9-11.2,10.2-16.5,15.6c-10.6,10.9-20.2,22.7-29.2,35.2l-0.8-0.5c6.8-13.9,15.3-27,25.3-39c9.9-12,21.2-23,33.7-32.5
			c6.3-4.7,12.8-9.1,19.6-13c1.7-1,3.4-1.9,5.1-2.9c1.7-0.9,3.4-1.9,5.1-2.8l10.3-5.3l5.1-2.6c1.7-0.9,3.4-1.7,5-2.7l5-2.7l4.8-2.9
			l1.2-0.7l1.2-0.8l2.3-1.6l2.3-1.6c0.8-0.5,1.5-1.1,2.2-1.7c1.5-1.2,3-2.2,4.4-3.4l4.2-3.7c1.4-1.2,2.7-2.6,4-3.9l2-2
			c0.7-0.7,1.3-1.3,1.9-2.1l3.6-4.3c0.6-0.7,1.2-1.4,1.8-2.2l1.7-2.2c2.2-3,4.4-6.1,6.4-9.3c2-3.2,3.8-6.5,5.5-9.8
			c3.4-6.7,6.5-13.7,9.4-20.8c2.9-7.1,5.9-14.2,8.7-21.3c11.4-28.4,19.7-58,25.1-88.3L798.9,308.6z"/>
	</g>
	<g>
		<path class="st0" d="M641.9,161.3c4.3,7.8,8.3,15.9,11.8,24.2c3.5,8.3,6.5,16.8,8.9,25.4c4.9,17.3,7.6,35.3,7.9,53.3
			c0,2.3,0,4.5-0.1,6.8c-0.1,2.3-0.3,4.6-0.6,6.8c-0.5,4.5-1.3,9-2.1,13.4c-1.6,8.8-3.5,17.6-5.4,26.4c-3.8,17.5-7.9,34.9-12.1,52.3
			c-4.2,17.4-8.5,34.8-12.9,52.1c-4.4,17.3-9.3,34.6-14.4,51.7c-2.6,8.6-5.3,17.1-7.9,25.6c-2.7,8.5-5.5,17-8.4,25.5
			c-5.7,17-11.5,33.9-17.7,50.7l-0.8-0.2c8.1-34.9,17.8-69.3,27.1-103.8c4.7-17.2,9.6-34.4,14.5-51.6c5-17.2,9.7-34.4,14.3-51.6
			c4.6-17.3,9-34.6,13.3-51.9c2.1-8.7,4.1-17.4,5.9-26.1c1.7-8.7,3.3-17.4,3.3-26.2c0.2-17.7-2-35.5-6.3-52.7
			c-4.4-17.2-10.9-33.9-19-49.8L641.9,161.3z"/>
	</g>
	<g>
		<path class="st0" d="M268.5,161.5c4.5,17.1,10,34,16.3,50.5c3.2,8.2,6.6,16.4,10.2,24.4c3.7,8,7.5,16,11.6,23.8
			c4.1,7.8,8.4,15.5,13,23.1c4.5,7.6,9.4,15,14.4,22.3c10,14.5,20.9,28.5,32.5,42c-6.2-6.3-12.2-12.9-18-19.6
			c-5.7-6.8-11.2-13.8-16.4-21c-5.2-7.2-10.2-14.6-14.9-22.1c-4.7-7.6-9.1-15.3-13.3-23.1c-8.3-15.8-15.5-32.1-21.4-48.8
			c-3-8.4-5.6-16.9-8-25.4C272.3,178.8,270.2,170.2,268.5,161.5z"/>
	</g>
	<g>
		<path class="st0" d="M434.5,220.3c5.9,16.7,12.7,33.1,20.6,48.9c3.9,7.9,8.1,15.7,12.5,23.3c4.4,7.6,9,15.2,14,22.5
			c1.2,1.8,2.5,3.6,3.7,5.5c1.3,1.8,2.5,3.6,3.8,5.4c2.6,3.6,5.2,7.1,7.9,10.6c5.4,7,10.9,13.8,16.5,20.6c1.4,1.7,2.8,3.4,4.2,5.1
			c1.4,1.7,2.9,3.4,4.3,5c2.8,3.4,5.8,6.6,8.7,9.9c5.9,6.6,12,13,18,19.5l-0.3,0.4c-14.1-10.9-26.9-23.3-38.8-36.7
			c-5.9-6.7-11.5-13.7-16.7-20.9c-5.2-7.2-10.1-14.7-14.9-22.2c-4.8-7.5-9.2-15.2-13.5-23c-4.2-7.8-8.2-15.8-11.9-23.9
			c-7.3-16.2-13.7-32.8-18.8-49.8L434.5,220.3z"/>
	</g>
	<g>
		<path class="st0" d="M661.3,310.3c8.4-7,16.1-14.8,23-23.3c6.9-8.5,13-17.6,18.2-27.2c2.6-4.8,5-9.8,7.1-14.8
			c2.1-5.1,4-10.2,5.6-15.4c3.3-10.5,5.5-21.3,6.8-32.2c-1,10.9-3,21.8-6.1,32.4c-1.5,5.3-3.3,10.5-5.3,15.7
			c-2,5.1-4.3,10.2-6.8,15.1c-5,9.8-11,19.2-17.7,27.9c-6.8,8.7-14.4,16.8-22.8,24.1L661.3,310.3z"/>
	</g>
	<g>
		<path class="st0" d="M713.8,488.8c1.4-24.1,3.9-48.2,7.8-72.1c1-6,2.1-11.9,3.4-17.8c1.3-5.9,2.8-11.8,5-17.5
			c4.1-11.4,9.4-22.3,16-32.4c-6.4,10.3-11.5,21.3-15.3,32.7c-2,5.7-3.4,11.5-4.6,17.4c-1.2,5.9-2.2,11.9-3,17.8
			c-3.4,23.9-5.4,47.9-6.3,72L713.8,488.8z"/>
	</g>
	<g>
		<path class="st0" d="M837.7,475.9c-1.5-6.9-2.8-13.9-3.7-21c-0.9-7-1.5-14.1-1.6-21.2c-0.1-3.5,0-7.1,0.3-10.7
			c0.2-1.8,0.4-3.5,0.7-5.3c0.4-1.8,0.9-3.5,1.4-5.2c2.1-6.8,5.4-13.2,9.4-19c-3.8,6-6.8,12.4-8.7,19.2c-2.1,6.7-2,13.8-1.6,20.8
			c0.4,7,1.2,14,2.4,21c1.1,6.9,2.6,13.8,4.4,20.6L837.7,475.9z"/>
	</g>
	<g>
		<path class="st0" d="M765.7,594.4c3.8-1.5,7.7-2.4,11.6-3.1c2-0.3,4-0.6,6-0.8c2-0.2,4-0.3,6-0.2c4,0.1,8,0.8,12,1.2
			c4,0.3,7.9,0.6,11.9,0.7c2,0,3.9,0,5.9,0c1.9-0.1,3.8-0.2,5.5-0.6c1.8-0.4,3.5-1,5.2-1.7c1.6-0.8,3.3-1.6,4.8-2.7
			c3.1-2,5.9-4.6,8.4-7.4c2.6-2.8,4.9-6,7.2-9.3l0.4,0.2c-1.1,3.9-2.8,7.6-5.1,11c-1.1,1.7-2.4,3.4-3.8,4.9c-1.4,1.6-3,2.9-4.7,4.2
			c-3.5,2.4-7.5,4.1-11.8,4.6c-2.1,0.3-4.2,0.3-6.3,0.1c-2.1-0.2-4-0.6-6-1c-3.9-0.8-7.8-1.5-11.7-1.6c-3.9-0.1-7.9,0.5-11.8,0.8
			c-2,0.2-3.9,0.3-5.9,0.4l-5.9,0.3c-3.9,0.2-7.8,0.4-11.9,0.4L765.7,594.4z"/>
	</g>
	<g>
		<path class="st0" d="M634.5,418.5c1.5-7.5,2.6-15.1,3.2-22.7c0.6-7.6,0.8-15.2,0.4-22.8c-0.4-7.6-1.2-15.2-2.6-22.7
			c-1.4-7.5-3.3-14.9-5.4-22.2c-2-7.4-4-14.7-5.7-22.2c-1.7-7.5-3-15-3.8-22.6c-0.9-7.6-1.5-15.2-1.7-22.9c-0.2-7.6,0-15.3,0.6-22.9
			c-0.4,7.6-0.4,15.3-0.1,22.9c0.3,7.6,0.9,15.2,1.9,22.8c1,7.6,2.3,15.1,4,22.5c1.7,7.4,3.7,14.8,5.7,22.2c2,7.4,3.9,14.8,5.3,22.3
			c1.4,7.5,2.3,15.2,2.5,22.8c0.3,7.6,0,15.3-0.7,22.9C637.4,403.5,636.1,411,634.5,418.5z"/>
	</g>
	<g>
		<path class="st0" d="M624.7,312c-3.8-4.3-7.1-9-10-14c-2.9-5-5.3-10.2-7.3-15.6c-2-5.4-3.5-11-4.5-16.7c-1-5.7-1.5-11.4-1.4-17.2
			c0.7,5.7,1.7,11.3,2.9,16.8c0.7,2.8,1.3,5.5,2.2,8.2c0.8,2.7,1.7,5.4,2.7,8.1c1.9,5.3,4.2,10.5,6.8,15.6
			C618.7,302.3,621.6,307.2,624.7,312z"/>
	</g>
	<path class="st1" d="M1204.5,284.5"/>
	<g>
		<path class="st2" d="M853.2,494.1c-7.7,4.2-15.6,7.5-23.4,9.7c-4.2,1.2-8.3,2.1-12.3,2.6"/>
		<path class="st2" d="M853.2,494.1c-1.7,3.5-4.1,6-6.7,8.2c-2.6,2.1-5.6,3.7-8.7,4.8c-3.1,1.1-6.5,1.8-9.9,1.8
			c-3.4,0-6.9-0.5-10.4-2.4c2.8-2.7,5.5-4.5,8.3-6c2.7-1.5,5.5-2.7,8.3-3.7c2.8-1,5.7-1.8,8.9-2.3
			C846.1,493.9,849.4,493.6,853.2,494.1z"/>
	</g>
	<g>
		<path class="st2" d="M699.1,555.1c-2-7.4-3.2-14.6-3.5-21.5c-0.1-3.7,0-7.2,0.4-10.6"/>
		<path class="st2" d="M699.1,555.1c-2.9-2-4.7-4.5-6.1-7.1c-1.4-2.6-2.1-5.4-2.5-8.3c-0.3-2.9-0.1-5.8,0.7-8.7
			c0.9-2.9,2.2-5.7,4.8-8.1c2,3,3,5.5,3.9,8.1c0.8,2.5,1.3,5,1.6,7.5c0.3,2.5,0.3,5.1,0,7.8C701.1,549.1,700.6,551.9,699.1,555.1z"
			/>
	</g>
</g>
<g id="Leaves">
	<g>
		<path class="st3" d="M700,607c-7.8-0.6-15.6-1.7-23.2-3.5c-4.1-0.9-8-2.1-11.8-3.3"/>
		<path class="st3" d="M700,607c-3.1,2.1-6.3,2.9-9.4,3.4c-3.1,0.4-6.3,0.3-9.3-0.3c-3-0.6-6-1.6-8.7-3.2c-2.7-1.6-5.4-3.6-7.5-6.7
			c3.5-1.3,6.6-1.6,9.6-1.7c3-0.1,5.8,0.2,8.7,0.8c2.8,0.6,5.6,1.4,8.3,2.5C694.4,603.1,697.2,604.5,700,607z"/>
	</g>
	<g>
		<path class="st3" d="M701.4,554.3c3.1-7.6,5.8-15.4,8.2-23.4c1.3-4.3,2.4-8.6,3.4-12.8"/>
		<path class="st3" d="M701.4,554.3c-0.9-3.8-0.9-7.1-0.7-10.4c0.3-3.2,1-6.3,1.9-9.2c0.5-1.5,1-2.9,1.6-4.4
			c0.6-1.4,1.3-2.9,2.1-4.3c1.6-2.8,3.6-5.5,6.6-8c1.4,3.6,1.7,7,1.7,10.4c0,3.4-0.6,6.6-1.6,9.7c-1,3.1-2.4,6.1-4.2,8.8
			C707,549.6,704.7,552.2,701.4,554.3z"/>
	</g>
	<g>
		<path class="st3" d="M817.3,511.1c8.5-1.3,17.1-3,25.8-5c4.7-1.1,9.2-2.3,13.7-3.5"/>
		<path class="st3" d="M817.3,511.1c3-2.8,6.1-4.5,9.2-6c3.1-1.4,6.3-2.4,9.5-3.1c3.2-0.7,6.6-1.1,10-1.2c3.4,0,7,0.3,10.8,1.7
			c-2.6,3.1-5.7,5-8.8,6.7c-3.1,1.7-6.4,2.8-9.7,3.5c-3.4,0.7-6.8,1-10.3,0.9C824.6,513.4,821,512.8,817.3,511.1z"/>
	</g>
	<g>
		<path class="st3" d="M789.2,354.9c8.1-4.7,16.3-9.7,24.4-15.1c4.4-2.9,8.6-5.8,12.7-8.8"/>
		<path class="st3" d="M789.2,354.9c2-3.8,4.6-6.7,7.3-9.3c2.7-2.6,5.6-4.8,8.6-6.8c3.1-2,6.3-3.7,9.7-5.1c3.5-1.4,7.1-2.5,11.5-2.7
			c-1.7,4-4.1,7-6.7,9.9c-2.6,2.8-5.5,5.2-8.6,7.2c-3.1,2-6.5,3.7-10.1,4.9C797.4,354.2,793.6,355.1,789.2,354.9z"/>
	</g>
	<g>
		<path class="st2" d="M195,180.5c1.2,5.6,2.6,11.3,4.5,17c3.5,10.7,8,21.2,13.5,31.5"/>
		<path class="st2" d="M195.5,180.4c1.7,4,3.4,8,5.2,11.9c0.9,2,1.8,3.9,2.8,5.8c0.9,1.9,1.8,3.8,2.8,5.7c1,1.9,2.2,3.7,3.3,5.5
			c1.1,1.8,2,3.7,2.6,5.8c0.6,2,1,4.2,1.3,6.4c0.2,2.2,0.4,4.6,0,7.2l-1,0.5c-2.4-1.2-4.3-2.7-6-4.3c-1.7-1.6-3.1-3.4-4.3-5.3
			c-1.2-1.9-2.1-3.9-2.6-6.1c-0.5-2.2-0.9-4.4-1.5-6.6c-0.5-2.2-1.1-4.3-1.5-6.5c-0.4-2.2-0.8-4.4-1.1-6.6c-0.6-4.4-1-8.8-1-13.2
			L195.5,180.4z"/>
	</g>
	<g>
		<path class="st2" d="M237,353.5c1.2,5.6,2.6,11.3,4.5,17c3.5,10.7,8,21.2,13.5,31.5"/>
		<path class="st2" d="M237.5,353.4c1.7,4,3.4,8,5.2,11.9c0.9,2,1.8,3.9,2.8,5.8c0.9,1.9,1.8,3.8,2.8,5.7c1,1.9,2.2,3.7,3.3,5.5
			c1.1,1.8,2,3.7,2.6,5.8c0.6,2,1,4.2,1.3,6.4c0.2,2.2,0.4,4.6,0,7.2l-1,0.5c-2.4-1.2-4.3-2.7-6-4.3c-1.7-1.6-3.1-3.4-4.3-5.3
			c-1.2-1.9-2.1-3.9-2.6-6.1c-0.5-2.2-0.9-4.4-1.5-6.6c-0.5-2.2-1.1-4.3-1.5-6.5c-0.4-2.2-0.8-4.4-1.1-6.6c-0.6-4.4-1-8.8-1-13.2
			L237.5,353.4z"/>
	</g>
	<g>
		<path class="st2" d="M288.2,474.7c5.2-2.3,10.5-5,15.7-8c9.7-5.7,19-12.4,27.9-19.9"/>
		<path class="st2" d="M288,474.2c3.6-2.5,7.1-5,10.5-7.7c1.7-1.3,3.4-2.6,5.1-3.9c1.7-1.3,3.4-2.6,5-4c1.7-1.3,3.1-2.9,4.7-4.4
			c1.5-1.5,3.2-2.7,5.1-3.7c1.9-1,3.9-1.9,6-2.6c2.1-0.7,4.4-1.3,7.1-1.5l0.7,0.8c-0.6,2.6-1.7,4.8-2.9,6.8c-1.2,2-2.7,3.8-4.3,5.3
			c-1.6,1.6-3.4,2.9-5.4,3.9c-2,1-4.1,1.8-6.1,2.9c-2,1-4,2-6,2.9c-2.1,0.9-4.1,1.7-6.2,2.5c-4.2,1.5-8.4,2.9-12.7,3.8L288,474.2z"
			/>
	</g>
	<g>
		<path class="st2" d="M465.7,254.2c0.1,5.7,0.5,11.6,1.2,17.6c1.4,11.2,3.9,22.3,7.3,33.4"/>
		<path class="st2" d="M466.3,254.2c0.9,4.3,1.8,8.5,2.9,12.7c0.5,2.1,1,4.2,1.6,6.2c0.5,2.1,1.1,4.1,1.7,6.2c0.6,2,1.4,4,2.2,6
			c0.8,2,1.3,4,1.4,6.1c0.2,2.1,0.2,4.3,0,6.5c-0.2,2.3-0.5,4.6-1.4,7.1l-1,0.3c-2.1-1.6-3.7-3.4-5.1-5.3c-1.3-1.9-2.4-3.9-3.2-6
			c-0.8-2.1-1.3-4.3-1.4-6.5c-0.1-2.3-0.1-4.5-0.2-6.7c-0.1-2.2-0.2-4.5-0.3-6.7c0-2.2,0.1-4.5,0.2-6.7c0.3-4.4,0.7-8.9,1.5-13.2
			L466.3,254.2z"/>
	</g>
	<g>
		<path class="st2" d="M320.7,248.2c0.1,5.7,0.5,11.6,1.2,17.6c1.4,11.2,3.9,22.3,7.3,33.4"/>
		<path class="st2" d="M321.3,248.2c0.9,4.3,1.8,8.5,2.9,12.7c0.5,2.1,1,4.2,1.6,6.2c0.5,2.1,1.1,4.1,1.7,6.2c0.6,2,1.4,4,2.2,6
			c0.8,2,1.3,4,1.4,6.1c0.2,2.1,0.2,4.3,0,6.5c-0.2,2.3-0.5,4.6-1.4,7.1l-1,0.3c-2.1-1.6-3.7-3.4-5.1-5.3c-1.3-1.9-2.4-3.9-3.2-6
			c-0.8-2.1-1.3-4.3-1.4-6.5c-0.1-2.3-0.1-4.5-0.2-6.7c-0.1-2.2-0.2-4.5-0.3-6.7c0-2.2,0.1-4.5,0.2-6.7c0.3-4.4,0.7-8.9,1.5-13.2
			L321.3,248.2z"/>
	</g>
	<g>
		<path class="st2" d="M620.7,393.2c0.1,5.7,0.5,11.6,1.2,17.6c1.4,11.2,3.9,22.3,7.3,33.4"/>
		<path class="st2" d="M621.3,393.2c0.9,4.3,1.8,8.5,2.9,12.7c0.5,2.1,1,4.2,1.6,6.2c0.5,2.1,1.1,4.1,1.7,6.2c0.6,2,1.4,4,2.2,6
			c0.8,2,1.3,4,1.4,6.1c0.2,2.1,0.2,4.3,0,6.5c-0.2,2.3-0.5,4.6-1.4,7.1l-1,0.3c-2.1-1.6-3.7-3.4-5.1-5.3c-1.3-1.9-2.4-3.9-3.2-6
			c-0.8-2.1-1.3-4.3-1.4-6.5c-0.1-2.3-0.1-4.5-0.2-6.7c-0.1-2.2-0.2-4.5-0.3-6.7c0-2.2,0.1-4.5,0.2-6.7c0.3-4.4,0.7-8.9,1.5-13.2
			L621.3,393.2z"/>
	</g>
	<g>
		<path class="st2" d="M683.5,170.7c-1.3,5.6-2.9,11.2-4.8,17c-3.7,10.7-8.4,21.1-14.1,31.2"/>
		<path class="st2" d="M684,170.8c-0.1,4.4-0.6,8.8-1.3,13.2c-0.4,2.2-0.8,4.4-1.2,6.6c-0.5,2.2-1.1,4.3-1.6,6.5
			c-0.6,2.1-1,4.4-1.6,6.6c-0.6,2.2-1.5,4.2-2.7,6.1c-1.3,1.9-2.7,3.6-4.4,5.2c-1.7,1.6-3.6,3.1-6.1,4.2l-1-0.5
			c-0.3-2.7-0.2-5,0.1-7.2c0.3-2.2,0.8-4.4,1.4-6.4c0.6-2,1.5-3.9,2.7-5.7c1.2-1.8,2.4-3.5,3.4-5.4c1-1.9,2-3.8,2.9-5.7
			c1-1.9,2-3.8,2.9-5.8c1.9-3.9,3.7-7.8,5.5-11.8L684,170.8z"/>
	</g>
	<g>
		<path class="st2" d="M698.8,189.3c-2.8,5-5.9,10-9.4,14.9c-6.5,9.2-13.9,17.9-22.2,26"/>
		<path class="st2" d="M699.3,189.5c-1.3,4.2-3.1,8.3-4.9,12.3c-1,2-2,4-3,6c-1.1,1.9-2.2,3.9-3.4,5.8c-1.2,1.9-2.2,3.9-3.4,5.8
			c-1.2,1.9-2.6,3.6-4.3,5.1c-1.7,1.4-3.6,2.7-5.7,3.8c-2.1,1-4.3,1.9-7,2.3l-0.8-0.8c0.4-2.6,1.2-4.8,2.1-6.9c0.9-2.1,2-4,3.1-5.7
			c1.2-1.8,2.5-3.3,4.2-4.7c1.6-1.4,3.3-2.7,4.8-4.3c1.5-1.5,3-3.1,4.4-4.6c1.5-1.5,2.9-3.1,4.4-4.7c2.9-3.2,5.7-6.5,8.5-9.8
			L699.3,189.5z"/>
	</g>
	<g>
		<path class="st2" d="M868.3,504.1c-6.3,2.5-13,4.7-19.9,6.6c-13,3.5-26.5,5.7-40.4,6.7"/>
		<path class="st2" d="M868.5,504.7c-4.5,2.7-9.2,5-14,7.2c-2.4,1-4.9,2-7.3,3c-2.5,0.9-5,1.7-7.5,2.5c-2.5,0.8-5,1.7-7.6,2.6
			c-2.5,0.8-5.2,1.3-7.8,1.3c-2.7,0-5.4-0.2-8-0.6c-2.7-0.5-5.4-1.2-8.1-2.6l-0.1-1.1c2.4-1.8,4.9-3,7.3-4c2.4-1,4.9-1.9,7.3-2.5
			c2.4-0.7,4.9-1,7.5-1.1c2.5-0.1,5.1-0.1,7.6-0.4c2.5-0.3,5-0.6,7.6-1c2.5-0.3,5.1-0.7,7.6-1.2c5.1-0.8,10.1-1.9,15.2-2.9
			L868.5,504.7z"/>
	</g>
	<g>
		<path class="st2" d="M789.8,351.4c6.8-5.5,12.9-11.5,18-17.9c2.7-3.4,5.1-6.9,7.2-10.4"/>
		<path class="st2" d="M789.8,351.4c1-3.8,2.6-6.7,4.2-9.4c1.7-2.7,3.5-5.1,5.5-7.3c2-2.2,4.2-4.3,6.6-6.2c2.5-1.9,5.1-3.8,8.7-5.3
			c0.4,3.9-0.5,7.3-1.8,10.5c-1.3,3.1-3.2,6-5.4,8.4c-2.2,2.5-4.8,4.6-7.8,6.2C797,349.9,793.7,351.2,789.8,351.4z"/>
	</g>
	<g>
		<path class="st2" d="M853.6,451c7.7-4.3,14.7-9.1,20.8-14.5c3.3-2.9,6.2-5.9,8.9-9"/>
		<path class="st2" d="M853.6,451c1.6-3.5,3.7-6.1,5.8-8.5c2.1-2.4,4.4-4.4,6.7-6.2c2.4-1.8,4.9-3.5,7.6-5c2.8-1.4,5.7-2.8,9.5-3.7
			c-0.3,3.9-1.8,7.1-3.6,10c-1.8,2.9-4.2,5.3-6.8,7.4c-2.6,2-5.6,3.7-8.8,4.8C860.9,450.8,857.5,451.5,853.6,451z"/>
	</g>
	<g>
		<path class="st2" d="M720.8,434.5c5.6-6.8,10.4-13.8,14.2-21c2-3.9,3.7-7.7,5-11.5"/>
		<path class="st2" d="M720.8,434.5c0.3-3.9,1.2-7,2.3-10c1.1-3,2.5-5.7,4-8.2c1.5-2.6,3.3-5,5.3-7.4c2.1-2.4,4.3-4.7,7.6-6.9
			c1.1,3.8,0.9,7.3,0.3,10.6c-0.7,3.3-2,6.5-3.7,9.3c-1.7,2.8-3.9,5.4-6.4,7.6C727.5,431.7,724.6,433.6,720.8,434.5z"/>
	</g>
	<g>
		<path class="st2" d="M143.6,446.9c3.6-0.2,7.3-0.6,10.9-1.1c6.9-0.9,13.7-2.2,20.3-3.8"/>
		<path class="st2" d="M143.6,446.4c2.6-1.1,5.1-2,7.6-3l7.5-2.6c1.2-0.4,2.4-1.1,3.6-1.7c1.2-0.6,2.4-0.8,3.8-0.8
			c1.3,0.1,2.7,0.3,4.1,0.8c1.4,0.5,2.9,1.1,4.6,2.4l0.3,1.1c-0.9,1.8-2,3.1-3.1,4.2c-1.1,1-2.4,1.8-3.6,2.4c-1.3,0.6-2.6,0.8-4,0.7
			c-1.4-0.1-2.8-0.4-4.2-0.4c-1.4,0-2.7-0.1-4.1-0.1c-1.4-0.1-2.7-0.3-4.1-0.5c-2.7-0.4-5.5-0.8-8.1-1.4L143.6,446.4z"/>
	</g>
	<g>
		<path class="st2" d="M297,383c-1.1,3.4-2.5,6.8-4.2,10.2c-3.3,6.4-7.6,12.7-12.8,18.8"/>
		<path class="st2" d="M297.5,383.2c-0.1,3-0.5,5.9-1.1,8.8c-0.6,2.9-1.6,5.8-2.7,8.6c-0.6,1.4-1,2.9-1.5,4.3
			c-0.5,1.4-1.4,2.7-2.5,3.7c-1.1,1-2.4,1.9-3.9,2.5c-1.5,0.7-3.2,1.2-5.3,1.2l-0.8-0.7c-0.3-2.1-0.2-3.8,0-5.3
			c0.2-1.5,0.6-2.9,1.2-4.2c0.5-1.3,1.3-2.3,2.3-3.2c1-0.9,2.1-1.8,3-2.8c1.8-2.1,3.5-4.2,5.3-6.4c1.8-2.2,3.4-4.5,5.1-6.9
			L297.5,383.2z"/>
	</g>
	<g>
		<path class="st2" d="M278.1,305.4c-8.4,2.7-16.6,4.6-24.8,5.4c-4.3,0.4-8.5,0.5-12.6,0.4"/>
		<path class="st2" d="M278.1,305.4c-2.3,3.2-5.1,5.2-8.1,6.8c-3,1.6-6.2,2.6-9.5,3.2c-3.3,0.5-6.7,0.6-10,0
			c-3.4-0.6-6.7-1.8-9.8-4.2c3.2-2.2,6.2-3.4,9.2-4.5c3-1,5.9-1.7,8.8-2.2c3-0.5,6-0.7,9.1-0.7C271.1,303.9,274.3,304.2,278.1,305.4
			z"/>
	</g>
	<g>
		<path class="st2" d="M502.9,351.3c-8.8-0.5-17.2-1.7-25-3.9c-4.2-1.2-8.2-2.6-11.9-4.2"/>
		<path class="st2" d="M502.9,351.3c-3.3,2.1-6.6,3-10,3.5c-3.4,0.4-6.7,0.2-10-0.5c-3.3-0.7-6.4-1.9-9.3-3.6
			c-2.9-1.8-5.6-4-7.6-7.4c3.8-0.9,7-0.9,10.2-0.8c3.1,0.1,6.1,0.5,9,1.1c2.9,0.6,5.8,1.5,8.8,2.7
			C496.9,347.4,499.8,348.8,502.9,351.3z"/>
	</g>
	<g>
		<path class="st2" d="M616.6,301.4c-7.1-1.8-13.5-4.2-19.1-7.2c-3-1.6-5.7-3.4-8-5.2"/>
		<path class="st2" d="M616.6,301.4c-3,1.6-5.8,2-8.6,2c-2.7-0.1-5.4-0.7-7.9-1.8c-2.5-1.1-4.8-2.6-6.7-4.7c-1.9-2.1-3.5-4.6-4-8
			c3.4-0.3,5.9,0,8.4,0.5c2.4,0.5,4.6,1.2,6.7,2.1c2.1,0.9,4.2,2.1,6.2,3.6C612.7,296.7,614.7,298.5,616.6,301.4z"/>
	</g>
	<g>
		<path class="st2" d="M477.8,412c-0.2-8.8,0.4-17.3,2-25.2c0.8-4.3,1.9-8.3,3.3-12.2"/>
		<path class="st2" d="M477.8,412c-2.4-3.1-3.5-6.4-4.2-9.7c-0.7-3.3-0.7-6.7-0.3-10c0.4-3.3,1.4-6.5,2.9-9.6c1.6-3,3.6-5.9,6.8-8.1
			c1.2,3.7,1.4,7,1.6,10.1c0.1,3.1-0.1,6.1-0.5,9.1c-0.4,3-1,5.9-2,8.9C481.2,405.7,480,408.8,477.8,412z"/>
	</g>
	<g>
		<path class="st2" d="M486,481c-0.5,5.6-1.5,10.9-3,16.1c-0.8,2.7-1.7,5.3-2.8,7.8"/>
		<path class="st2" d="M486,481c2.1,2.3,3,4.5,3.5,6.8c0.5,2.3,0.4,4.5-0.1,6.6c-0.5,2.1-1.4,4.2-2.9,6c-1.5,1.8-3.4,3.4-6.3,4.4
			c-1.3-2.8-1.7-5-1.9-7.1c-0.2-2.1,0-4,0.4-5.9c0.4-1.9,1.2-3.7,2.3-5.5C482.1,484.6,483.5,482.8,486,481z"/>
	</g>
	<g>
		<path class="st2" d="M731,518c-1.9,4.3-4.1,8.5-6.7,12.8c-4.9,8-11,15.6-18.1,22.8"/>
		<path class="st2" d="M731.5,518.2c-0.7,3.7-1.8,7.3-3,10.9c-1.3,3.6-2.9,7-4.7,10.4c-0.9,1.7-1.7,3.5-2.5,5.2
			c-0.9,1.7-2.1,3.2-3.5,4.4c-1.5,1.2-3.1,2.3-4.9,3.2c-1.8,0.8-3.8,1.5-6.2,1.7l-0.8-0.8c0.1-2.4,0.7-4.4,1.3-6.2
			c0.6-1.8,1.4-3.5,2.3-5c0.9-1.6,2-2.9,3.3-4c1.3-1.2,2.8-2.3,4-3.6c2.4-2.6,4.8-5.3,7.1-8c2.3-2.7,4.6-5.6,6.8-8.6L731.5,518.2z"
			/>
	</g>
	<g>
		<path class="st3" d="M659.2,202.3c3.5-7.5,6.5-15.3,9.1-23.2c1.3-4.3,2.5-8.5,3.5-12.7"/>
		<path class="st3" d="M659.2,202.3c-0.7-3.9-0.6-7.2-0.2-10.4c0.4-3.2,1.2-6.2,2.2-9.1c1-2.9,2.3-5.7,4-8.5c1.7-2.7,3.6-5.4,6.6-8
			c1.5,3.6,1.8,7.1,1.7,10.4c-0.1,3.4-0.8,6.6-1.9,9.7c-1.1,3.1-2.6,6-4.6,8.7C665,197.9,662.6,200.4,659.2,202.3z"/>
	</g>
	<g>
		<path class="st4" d="M635.6,143.7c1,3.5,2.1,7,3.3,10.5c2.3,6.6,5,12.9,8,19.1"/>
		<path class="st4" d="M636.1,143.6c1.6,2.3,3.1,4.6,4.5,6.8l4.1,6.8c0.7,1.1,1.6,2.1,2.4,3.2c0.8,1.1,1.3,2.2,1.5,3.5
			c0.2,1.3,0.3,2.7,0.1,4.2c-0.2,1.5-0.5,3.1-1.4,5l-1,0.5c-2-0.5-3.4-1.3-4.7-2.2c-1.3-0.9-2.3-1.9-3.1-3c-0.8-1.1-1.3-2.4-1.5-3.8
			c-0.2-1.4-0.2-2.8-0.5-4.2c-0.3-1.3-0.5-2.7-0.7-4.1c-0.2-1.4-0.3-2.8-0.4-4.1c-0.2-2.8-0.4-5.5-0.3-8.3L636.1,143.6z"/>
	</g>
	<g>
		<path class="st2" d="M656.7,160.9c0.2,2.7,0.3,5.5,0.1,8.4c-0.3,5.4-1.3,11-2.8,16.7"/>
		<path class="st2" d="M657.3,160.9c1,2.1,1.8,4.2,2.4,6.4c0.6,2.2,1,4.5,1.2,6.8c0.1,1.1,0.4,2.3,0.6,3.5c0.2,1.2,0,2.3-0.5,3.3
			c-0.5,1-1.3,2-2.3,2.9c-1,0.9-2.2,1.7-4,2.3l-1.1-0.3c-1.2-1.4-1.9-2.7-2.5-3.8c-0.5-1.2-0.8-2.2-0.9-3.3c-0.1-1,0.1-2,0.6-2.9
			c0.5-0.9,1.1-1.8,1.4-2.8l2.1-5.9c0.7-2,1.3-4.1,2-6.2L657.3,160.9z"/>
	</g>
	<g>
		<path class="st3" d="M637.2,400.4c-7.8-13-13.5-25.2-16.9-36.3c-1.8-5.9-2.9-11.4-3.3-16.5"/>
		<path class="st3" d="M637.2,400.4c-4.4-2.9-7.8-6.5-10.8-10.5c-3-3.9-5.4-8.2-7.3-12.8c-1.9-4.6-3.2-9.4-3.7-14.4
			c-0.5-5-0.3-10.2,1.6-15.1c2.7,4.5,4.7,8.7,6.7,12.9c2,4.1,3.8,8.3,5.6,12.5c1.7,4.2,3.4,8.5,4.8,13
			C635.4,390.5,636.7,395.2,637.2,400.4z"/>
	</g>
	<g>
		<path class="st3" d="M627.5,213.2c4,1.3,8,2.6,12.2,3.8c7.7,2.3,15.4,4.3,22.9,6"/>
		<path class="st3" d="M627.7,212.7c3.2,0.1,6.2,0.4,9.3,0.6c3.1,0.3,6.1,0.6,9.1,1c1.5,0.2,3.1,0.1,4.6,0.2c1.5,0,3,0.4,4.4,1.1
			c1.4,0.7,2.7,1.6,4,2.7c1.3,1.1,2.5,2.4,3.6,4.3l-0.2,1.1c-1.8,1.2-3.6,1.8-5.2,2.2c-1.7,0.4-3.3,0.5-4.9,0.4
			c-1.6-0.1-3.1-0.5-4.5-1.2c-1.4-0.7-2.8-1.6-4.2-2.2c-1.4-0.6-2.8-1.3-4.2-2c-1.4-0.7-2.8-1.5-4.1-2.2c-2.7-1.6-5.4-3.1-8.1-4.8
			L627.7,212.7z"/>
	</g>
	<g>
		<path class="st3" d="M260,404.9c4-7.3,7.5-14.8,10.6-22.6c1.6-4.2,3.1-8.3,4.4-12.5"/>
		<path class="st3" d="M260,404.9c-0.5-3.9-0.1-7.2,0.5-10.4c0.6-3.2,1.6-6.1,2.8-8.9c1.2-2.8,2.7-5.6,4.5-8.2
			c1.9-2.6,4-5.2,7.1-7.5c1.3,3.7,1.3,7.2,1,10.5c-0.4,3.3-1.2,6.5-2.5,9.5c-1.3,3-3,5.8-5.1,8.4C266.1,400.8,263.6,403.2,260,404.9
			z"/>
	</g>
	<g>
		<path class="st3" d="M318,481.9c4-7.3,7.5-14.8,10.6-22.6c1.6-4.2,3.1-8.3,4.4-12.5"/>
		<path class="st3" d="M318,481.9c-0.5-3.9-0.1-7.2,0.5-10.4c0.6-3.2,1.6-6.1,2.8-8.9c1.2-2.8,2.7-5.6,4.5-8.2
			c1.9-2.6,4-5.2,7.1-7.5c1.3,3.7,1.3,7.2,1,10.5c-0.4,3.3-1.2,6.5-2.5,9.5c-1.3,3-3,5.8-5.1,8.4C324.1,477.8,321.6,480.2,318,481.9
			z"/>
	</g>
	<g>
		<path class="st3" d="M105.3,423.9c8.9,2.2,16.3,3.9,22,5.1c3,0.6,5.5,1.1,7.4,1.4"/>
		<path class="st3" d="M105.4,423.3c2.6-0.3,5.2-0.4,7.8-0.5c2.6-0.1,5.1-0.1,7.6,0.1c1.3,0.1,2.6-0.1,3.9-0.2
			c1.3-0.1,2.5,0.2,3.6,0.8c1.1,0.5,2.2,1.3,3.3,2.2c1.1,1,2.1,2.2,3.1,4l-0.2,1.1c-1.5,1.3-2.9,2.1-4.3,2.6
			c-1.4,0.5-2.8,0.8-4.1,0.9c-1.3,0-2.5-0.3-3.7-0.9c-1.2-0.6-2.3-1.4-3.5-1.9c-2.4-1-4.7-2.1-7-3.3c-2.3-1.2-4.6-2.4-6.8-3.8
			L105.4,423.3z"/>
	</g>
	<g>
		<path class="st3" d="M170.5,468.7c6.9-4.5,13.1-9.4,18.4-14.7c2.8-2.9,5.4-5.8,7.6-8.9"/>
		<path class="st3" d="M170.5,468.7c1.2-3.5,2.9-6.1,4.6-8.5c1.8-2.4,3.7-4.4,5.8-6.2c2.1-1.9,4.3-3.5,6.8-5
			c2.5-1.5,5.2-2.9,8.8-3.9c0.1,3.7-1,6.9-2.4,9.7c-1.5,2.8-3.5,5.3-5.8,7.3c-2.3,2.1-5,3.8-7.9,4.9
			C177.4,468.3,174.2,469.1,170.5,468.7z"/>
	</g>
	<g>
		<path class="st2" d="M159.6,456.5c3.5-0.9,7.1-1.9,10.7-3.2c6.7-2.3,13.3-5.3,19.7-8.8"/>
		<path class="st2" d="M159.5,455.9c2.4-1.5,4.8-2.8,7.2-4.3l6.9-4.2c1.1-0.7,2.2-1.6,3.2-2.5c1.1-0.8,2.2-1.4,3.5-1.7
			c1.3-0.3,2.7-0.4,4.3-0.3c1.5,0.1,3.2,0.3,5.1,1.1l0.5,1c-0.4,2-1.2,3.6-2.1,4.9c-0.9,1.3-1.9,2.4-3.1,3.3
			c-1.1,0.9-2.5,1.5-3.9,1.7c-1.4,0.2-2.9,0.3-4.3,0.7c-2.8,0.6-5.6,1.1-8.5,1.3c-2.9,0.2-5.7,0.3-8.6,0.1L159.5,455.9z"/>
	</g>
	<g>
		<path class="st4" d="M131.1,403c0.4,3.2,0.9,6.5,1.6,9.8c1.2,6.2,2.8,12.3,4.7,18.2"/>
		<path class="st4" d="M131.7,402.9c1.2,2.2,2.3,4.5,3.3,6.7l2.9,6.6c0.5,1.1,1.2,2.1,1.8,3.1c0.6,1,0.9,2.1,0.9,3.3
			c0,1.2-0.2,2.5-0.6,3.8c-0.4,1.3-1,2.8-2.1,4.4l-1,0.3c-1.9-0.7-3.2-1.5-4.3-2.5c-1.1-1-1.9-2-2.6-3.1c-0.6-1.1-0.9-2.3-0.9-3.6
			c0-1.3,0.2-2.6,0.2-3.8c0-1.3-0.1-2.5,0-3.8c0-1.3,0.2-2.5,0.3-3.8c0.3-2.5,0.6-5,1-7.5L131.7,402.9z"/>
	</g>
	<g>
		<path class="st4" d="M274.5,470.3c3.4-1.9,6.7-3.9,10.1-6c6.2-4,12.2-8.2,17.9-12.7"/>
		<path class="st4" d="M274.3,469.8c2-2.2,4-4.2,6.1-6.2l6.1-5.8c1-0.9,1.9-2.1,2.8-3.2c0.9-1.1,2-1.9,3.3-2.4
			c1.3-0.5,2.7-0.9,4.3-1.2c1.6-0.2,3.3-0.3,5.3,0.1l0.7,0.9c-0.1,2.1-0.7,3.7-1.3,5.2c-0.7,1.5-1.5,2.8-2.5,3.9
			c-1,1.1-2.2,1.9-3.5,2.5c-1.4,0.5-2.8,1-4.1,1.6c-1.3,0.6-2.6,1.2-4,1.7c-1.3,0.5-2.8,1-4.1,1.4c-2.8,0.9-5.6,1.8-8.4,2.4
			L274.3,469.8z"/>
	</g>
	<g>
		<path class="st2" d="M330.8,303.5c5.6-6.8,10.4-13.8,14.2-21c2-3.9,3.7-7.7,5-11.5"/>
		<path class="st2" d="M330.8,303.5c0.3-3.9,1.2-7,2.3-10c1.1-3,2.5-5.7,4-8.2c1.5-2.6,3.3-5,5.3-7.4c2.1-2.4,4.3-4.7,7.6-6.9
			c1.1,3.8,0.9,7.3,0.3,10.6c-0.7,3.3-2,6.5-3.7,9.3c-1.7,2.8-3.9,5.4-6.4,7.6C337.5,300.7,334.6,302.6,330.8,303.5z"/>
	</g>
	<g>
		<path class="st2" d="M280.4,206.6c4.8-5.8,8.8-11.7,11.7-17.7c1.6-3.2,2.8-6.3,3.7-9.4"/>
		<path class="st2" d="M280.4,206.6c-0.1-3.5,0.5-6.2,1.3-8.7c0.8-2.5,1.8-4.7,3-6.8c1.2-2.1,2.6-4.1,4.4-5.9
			c1.8-1.9,3.7-3.7,6.7-5.6c1.5,3.2,1.6,6.2,1.2,9.1c-0.4,2.9-1.4,5.6-2.8,8c-1.4,2.4-3.2,4.6-5.5,6.3
			C286.5,204.6,283.9,206.1,280.4,206.6z"/>
	</g>
	<g>
		<path class="st2" d="M501,166c-1.1,3.4-2.5,6.8-4.2,10.2c-3.3,6.4-7.6,12.7-12.8,18.8"/>
		<path class="st2" d="M501.5,166.2c-0.1,3-0.5,5.9-1.1,8.8c-0.6,2.9-1.6,5.8-2.7,8.6c-0.6,1.4-1,2.9-1.5,4.3
			c-0.5,1.4-1.4,2.7-2.5,3.7c-1.1,1-2.4,1.9-3.9,2.5c-1.5,0.7-3.2,1.2-5.3,1.2l-0.8-0.7c-0.3-2.1-0.2-3.8,0-5.3
			c0.2-1.5,0.6-2.9,1.2-4.2c0.5-1.3,1.3-2.3,2.3-3.2c1-0.9,2.1-1.8,3-2.8c1.8-2.1,3.5-4.2,5.3-6.4c1.8-2.2,3.4-4.5,5.1-6.9
			L501.5,166.2z"/>
	</g>
	<g>
		<path class="st2" d="M457.9,203.8c3.5-0.2,7.2-0.1,11,0.3c7.2,0.7,14.6,2.4,22.2,5"/>
		<path class="st2" d="M457.9,203.3c2.8-1,5.7-1.7,8.7-2.1c3-0.5,6-0.7,9-0.6c1.5,0,3-0.1,4.6-0.2c1.5,0,3,0.3,4.3,1
			c1.4,0.7,2.6,1.6,3.8,2.8c1.2,1.2,2.2,2.6,3.1,4.5l-0.4,1c-1.8,1-3.4,1.5-5,1.9c-1.5,0.3-3,0.5-4.3,0.4c-1.4,0-2.6-0.4-3.9-1
			c-1.2-0.6-2.4-1.4-3.7-1.8c-2.6-0.9-5.2-1.8-7.8-2.6c-2.7-0.8-5.4-1.5-8.2-2.2L457.9,203.3z"/>
	</g>
	<g>
		<path class="st2" d="M546,265c-1.1,3.4-2.5,6.8-4.2,10.2c-3.3,6.4-7.6,12.7-12.8,18.8"/>
		<path class="st2" d="M546.5,265.2c-0.1,3-0.5,5.9-1.1,8.8c-0.6,2.9-1.6,5.8-2.7,8.6c-0.6,1.4-1,2.9-1.5,4.3
			c-0.5,1.4-1.4,2.7-2.5,3.7c-1.1,1-2.4,1.9-3.9,2.5c-1.5,0.7-3.2,1.2-5.3,1.2l-0.8-0.7c-0.3-2.1-0.2-3.8,0-5.3
			c0.2-1.5,0.6-2.9,1.2-4.2c0.5-1.3,1.3-2.3,2.3-3.2c1-0.9,2.1-1.8,3-2.8c1.8-2.1,3.5-4.2,5.3-6.4c1.8-2.2,3.4-4.5,5.1-6.9
			L546.5,265.2z"/>
	</g>
	<g>
		<path class="st4" d="M660,308.5c-3.6-10.3-7-20.9-10-31.8c-1.7-5.8-3.2-11.6-4.6-17.4"/>
		<path class="st2" d="M660,308.5c-3.6-3.3-6-7-8.2-10.8c-2.1-3.8-3.7-7.9-5-12c-1.2-4.1-2.1-8.4-2.4-12.8
			c-0.3-4.4-0.3-8.8,0.9-13.5c3.3,3.6,5.5,7.4,7.5,11.2c1.9,3.9,3.3,7.9,4.6,11.9c1.2,4.1,2.1,8.2,2.6,12.5
			C660.5,299.3,660.8,303.7,660,308.5z"/>
	</g>
	<g>
		<path class="st4" d="M719,449.5c-3.6-10.3-7-20.9-10-31.8c-1.7-5.8-3.2-11.6-4.6-17.4"/>
		<path class="st2" d="M719,449.5c-3.6-3.3-6-7-8.2-10.8c-2.1-3.8-3.7-7.9-5-12c-1.2-4.1-2.1-8.4-2.4-12.8
			c-0.3-4.4-0.3-8.8,0.9-13.5c3.3,3.6,5.5,7.4,7.5,11.2c1.9,3.9,3.3,7.9,4.6,11.9c1.2,4.1,2.1,8.2,2.6,12.5
			C719.5,440.3,719.8,444.7,719,449.5z"/>
	</g>
	<g>
		<path class="st4" d="M780.4,385.1c-2.5-10.6-4.7-21.5-6.6-32.7c-1-6-1.9-11.9-2.7-17.8"/>
		<path class="st2" d="M780.4,385.1c-3.2-3.6-5.2-7.6-7-11.6c-1.7-4-2.9-8.2-3.6-12.5c-0.8-4.2-1.2-8.6-1-13
			c0.2-4.4,0.7-8.8,2.3-13.4c2.9,3.9,4.7,7.9,6.2,12c1.4,4.1,2.5,8.2,3.2,12.3c0.8,4.2,1.2,8.4,1.3,12.7
			C781.8,376.1,781.6,380.5,780.4,385.1z"/>
	</g>
	<g>
		<path class="st4" d="M833.1,438.8c-4.8-3.4-9.5-7.1-14-11.2c-2.4-2.2-4.7-4.4-6.9-6.6"/>
		<path class="st2" d="M833.1,438.8c-3.2,0.5-5.8,0.1-8.1-0.7c-2.4-0.8-4.4-2-6.2-3.5c-1.8-1.5-3.3-3.4-4.5-5.6
			c-1.1-2.3-2-4.7-2-7.9c3.3,0,5.7,0.7,7.9,1.6c2.1,1,4,2.2,5.7,3.6c1.7,1.4,3.2,3.1,4.4,5.1C831.5,433.4,832.6,435.6,833.1,438.8z"
			/>
	</g>
	<g>
		<path class="st4" d="M681.2,506.4c-1.6-7.5-2.9-15.1-4-22.9c-0.6-4.2-1-8.3-1.4-12.4"/>
		<path class="st2" d="M681.2,506.4c-2.9-2.4-4.6-5.2-6-8c-1.4-2.8-2.2-5.8-2.7-8.8c-0.5-3-0.5-6.1,0-9.2c0.5-3.1,1.3-6.2,3.3-9.4
			c2.6,2.8,4.1,5.6,5.3,8.4c1.1,2.8,1.8,5.7,2.3,8.6c0.4,2.9,0.6,5.8,0.3,8.9C683.3,499.9,682.8,503,681.2,506.4z"/>
	</g>
	<g>
		<path class="st4" d="M422,367.5c-3.6-10.3-7-20.9-10-31.8c-1.7-5.8-3.2-11.6-4.6-17.4"/>
		<path class="st2" d="M422,367.5c-3.6-3.3-6-7-8.2-10.8c-2.1-3.8-3.7-7.9-5-12c-1.2-4.1-2.1-8.4-2.4-12.8
			c-0.3-4.4-0.3-8.8,0.9-13.5c3.3,3.6,5.5,7.4,7.5,11.2c1.9,3.9,3.3,7.9,4.6,11.9c1.2,4.1,2.1,8.2,2.6,12.5
			C422.5,358.3,422.8,362.7,422,367.5z"/>
	</g>
	<g>
		<path class="st4" d="M433.1,376.5c0.2-10.9,0.7-22,1.6-33.3c0.5-6,1-12,1.7-17.9"/>
		<path class="st2" d="M433.1,376.5c-2.2-4.3-3.2-8.6-3.9-13c-0.7-4.3-0.8-8.7-0.5-13c0.3-4.3,0.9-8.6,2.2-12.8
			c1.3-4.2,2.8-8.4,5.5-12.4c1.9,4.5,2.7,8.8,3.1,13.1c0.4,4.3,0.4,8.5,0.2,12.8c-0.3,4.2-0.8,8.4-1.8,12.6
			C436.7,368.1,435.5,372.3,433.1,376.5z"/>
	</g>
	<g>
		<path class="st4" d="M254.7,405.2c-6.3,5.1-13,9.9-20,14.5c-3.7,2.5-7.5,4.8-11.2,7"/>
		<path class="st2" d="M254.7,405.2c-1,3.8-2.9,6.6-4.9,9.3c-2.1,2.6-4.5,4.8-7.2,6.6c-2.7,1.8-5.5,3.3-8.7,4.3
			c-3.2,1-6.5,1.7-10.4,1.4c1.5-3.7,3.6-6.3,5.7-8.7c1.1-1.2,2.3-2.2,3.5-3.2c1.2-1,2.4-2,3.7-2.8c2.6-1.7,5.3-3.3,8.3-4.5
			C247.6,406.4,250.8,405.4,254.7,405.2z"/>
	</g>
	<g>
		<path class="st4" d="M218.6,377.8c-8.1-1-16.2-2.5-24.3-4.3c-4.4-1-8.6-2.1-12.8-3.3"/>
		<path class="st2" d="M218.6,377.8c-3.4,1.9-6.8,2.5-10.1,2.9c-3.3,0.3-6.6,0-9.7-0.6c-3.2-0.6-6.2-1.7-9.2-3.3
			c-2.9-1.6-5.7-3.5-8.2-6.5c3.7-1.4,7-1.8,10.2-1.9c1.6,0,3.2,0.1,4.7,0.3c1.6,0.2,3.1,0.4,4.6,0.7c3,0.6,6,1.5,8.9,2.9
			C212.9,373.5,215.8,375.1,218.6,377.8z"/>
	</g>
	<g>
		<path class="st3" d="M216.9,374.4c0.8-7.3,1.1-14.6,0.9-21.9c-0.1-3.9-0.4-7.8-0.8-11.5"/>
		<path class="st3" d="M216.9,374.4c-1.1-2.9-1.6-5.7-2-8.5c-0.4-2.8-0.5-5.5-0.5-8.2c0-2.7,0.2-5.4,0.6-8.2
			c0.4-2.8,0.9-5.6,2.1-8.5c1.8,2.6,2.7,5.4,3.4,8.2c0.7,2.8,1,5.7,1,8.5c0,2.9-0.3,5.7-1,8.5C219.6,369,218.7,371.8,216.9,374.4z"
			/>
	</g>
	<g>
		<path class="st4" d="M266.4,226.9c3,2,6.1,3.9,9.3,5.8c6,3.5,12.2,6.6,18.4,9.3"/>
		<path class="st4" d="M266.7,226.5c2.7,0.7,5.3,1.5,7.8,2.3l7.5,2.5c1.2,0.4,2.6,0.6,3.9,0.9c1.3,0.3,2.5,0.8,3.5,1.7
			c1,0.9,1.9,1.9,2.8,3.1c0.8,1.3,1.6,2.7,2.2,4.7l-0.4,1c-1.8,0.9-3.5,1.2-5,1.4c-1.5,0.1-3,0-4.4-0.3c-1.4-0.3-2.6-0.9-3.6-1.9
			c-1-0.9-2-2-3.1-2.8c-1.1-0.8-2.1-1.7-3.2-2.6c-1-0.9-2-1.9-3-2.9c-1.9-2-3.8-4-5.6-6.1L266.7,226.5z"/>
	</g>
	<g>
		<path class="st2" d="M295.5,283.8c2.7,2.2,5.7,4.3,9.1,6.3c6.2,3.7,13.2,6.6,20.9,9"/>
		<path class="st2" d="M295.9,283.4c2.7,1.1,5.3,2.2,8,3.1c2.6,0.9,5.3,1.7,7.9,2.5c1.3,0.4,2.7,0.5,4.1,0.8
			c1.4,0.2,2.6,0.7,3.7,1.5c1.1,0.8,2.2,1.7,3.2,2.9c1,1.2,2,2.5,2.9,4.5l-0.3,1.1c-1.8,1.1-3.5,1.6-5.1,1.8c-1.6,0.2-3.2,0.2-4.7,0
			c-1.5-0.2-2.9-0.8-4.1-1.8c-1.2-0.9-2.4-2-3.6-2.8c-2.5-1.7-4.8-3.6-6.9-5.8c-2.1-2.1-4.1-4.4-5.7-6.8L295.9,283.4z"/>
	</g>
	<g>
		<path class="st3" d="M233,255.2c1.5-6.8,2.6-13.7,3.5-20.8c0.4-3.8,0.8-7.5,1-11.2"/>
		<path class="st3" d="M233,255.2c-1.7-3.1-2.3-5.9-2.7-8.7c-0.3-2.7-0.3-5.4,0.1-8c0.4-2.6,1-5.2,2-7.7c1.1-2.5,2.5-5.1,5-7.6
			c2.1,2.8,3,5.7,3.6,8.5c0.6,2.8,0.6,5.6,0.2,8.4c-0.4,2.7-1.2,5.4-2.5,8C237.5,250.5,235.8,253,233,255.2z"/>
	</g>
	<g>
		<path class="st5" d="M304,199c-0.4,4.1-1.1,8.2-2,12.4c-1.7,7.9-4.4,15.8-7.8,23.5"/>
		<path class="st5" d="M304.5,199.1c0.6,3.2,0.8,6.4,0.8,9.7c0.1,3.3-0.2,6.5-0.6,9.8c-0.2,1.6-0.2,3.3-0.4,5
			c-0.2,1.7-0.7,3.2-1.5,4.6c-0.9,1.4-1.9,2.7-3.2,4c-1.3,1.2-2.8,2.3-4.9,3.1l-1-0.4c-0.8-2.1-1.1-3.8-1.3-5.5
			c-0.2-1.7-0.1-3.3,0.1-4.8c0.2-1.5,0.7-2.9,1.5-4.2c0.8-1.3,1.7-2.6,2.3-4c1.2-2.8,2.5-5.6,3.7-8.4c1.2-2.9,2.3-5.8,3.5-8.8
			L304.5,199.1z"/>
	</g>
	<g>
		<path class="st2" d="M261.3,179.7c1.5,2.2,3.1,4.3,4.9,6.4c3.3,4,6.8,7.6,10.6,11.1"/>
		<path class="st2" d="M261.7,179.4c1.9,1.1,3.6,2.2,5.2,3.3l4.8,3.3c0.8,0.6,1.8,0.9,2.7,1.4c0.9,0.4,1.6,1.1,2,2
			c0.4,0.9,0.7,1.9,0.9,3.1c0.1,1.2,0.2,2.6-0.2,4.4l-0.7,0.8c-1.8,0.5-3.2,0.5-4.5,0.4c-1.3-0.1-2.4-0.5-3.3-1
			c-1-0.5-1.7-1.3-2.1-2.3c-0.4-1-0.8-2.1-1.3-3c-0.5-0.9-1-1.8-1.4-2.8c-0.4-0.9-0.8-2-1.1-3c-0.7-2-1.4-4-1.8-6.1L261.7,179.4z"/>
	</g>
	<g>
		<path class="st2" d="M440.3,236.3c2.9-3.7,5.4-7.6,7.4-11.6c1.1-2.2,2-4.3,2.8-6.4"/>
		<path class="st2" d="M440.3,236.3c-0.7-2.8-0.7-4.8-0.5-6.6c0.2-1.8,0.8-3.3,1.5-4.7c0.8-1.4,1.8-2.6,3.2-3.7
			c1.5-1.1,3.2-2.1,5.9-3c1.6,2.4,1.9,4.6,1.9,6.6c0,2-0.6,3.9-1.5,5.5c-0.9,1.6-2.2,3-3.9,4.1C445.2,235.5,443.2,236.3,440.3,236.3
			z"/>
	</g>
	<g>
		<path class="st3" d="M302,253.9c3-4.7,5.6-9.6,7.8-14.7c1.2-2.7,2.2-5.5,3.2-8.2"/>
		<path class="st3" d="M302,253.9c-0.8-3-0.8-5.4-0.5-7.6c0.3-2.2,0.9-4.1,1.7-5.9c0.9-1.8,2-3.5,3.5-5.1c1.6-1.6,3.4-3.1,6.2-4.3
			c1.5,2.8,1.8,5.2,1.8,7.6c-0.1,2.4-0.7,4.5-1.6,6.6c-1,2-2.3,3.8-4.1,5.4C307.2,252,305.1,253.3,302,253.9z"/>
	</g>
	<g>
		<path class="st2" d="M283.4,248.9c2.5,1.6,5,3.2,7.7,4.7c4.9,2.9,9.8,5.6,14.6,8"/>
		<path class="st2" d="M283.6,248.4c2.3,0.4,4.4,0.9,6.6,1.5c2.1,0.6,4.2,1.2,6.3,1.8c1,0.3,2.2,0.4,3.3,0.6c1.1,0.2,2,0.7,2.8,1.5
			c0.8,0.8,1.4,1.7,2,2.9c0.6,1.2,1.1,2.5,1.3,4.4l-0.5,1c-1.7,0.9-3.1,1.3-4.4,1.5c-1.3,0.2-2.5,0.1-3.6-0.1
			c-1.1-0.2-2.1-0.8-2.9-1.6c-0.8-0.8-1.5-1.8-2.3-2.5c-0.8-0.7-1.7-1.5-2.5-2.3c-0.8-0.8-1.6-1.6-2.3-2.5c-1.5-1.7-3-3.4-4.3-5.3
			L283.6,248.4z"/>
	</g>
	<g>
		<path class="st4" d="M530,379.5c-3.6-10.3-7-20.9-10-31.8c-1.7-5.8-3.2-11.6-4.6-17.4"/>
		<path class="st4" d="M530,379.5c-3.6-3.3-6-7-8.2-10.8c-2.1-3.8-3.7-7.9-5-12c-1.2-4.1-2.1-8.4-2.4-12.8
			c-0.3-4.4-0.3-8.8,0.9-13.5c3.3,3.6,5.5,7.4,7.5,11.2c1.9,3.9,3.3,7.9,4.6,11.9c1.2,4.1,2.1,8.2,2.6,12.5
			C530.5,370.3,530.8,374.7,530,379.5z"/>
	</g>
	<g>
		<path class="st5" d="M704.2,627.6c-5.1-2.5-10.3-5.4-15.4-8.6c-9.5-6-18.5-13.1-27-21"/>
		<path class="st5" d="M704,628.1c-4.3-1.1-8.4-2.7-12.6-4.3c-2-0.9-4.1-1.8-6.1-2.7c-2-1-4-2-5.9-3.1c-1.9-1.1-4-2-6-3.1
			c-2-1.1-3.8-2.4-5.3-4.1c-1.5-1.7-2.9-3.5-4-5.5c-1.1-2-2.1-4.2-2.7-6.9l0.7-0.8c2.7,0.3,4.9,1,7,1.8c2.1,0.8,4.1,1.8,5.9,2.8
			c1.8,1.1,3.5,2.4,4.9,3.9c1.5,1.5,2.9,3.2,4.5,4.6c1.6,1.4,3.2,2.8,4.8,4.2c1.6,1.4,3.2,2.8,4.9,4.1c3.3,2.8,6.7,5.4,10.2,8.1
			L704,628.1z"/>
	</g>
	<g>
		<path class="st2" d="M658.8,598.5c5.6-6.8,10.4-13.8,14.2-21c2-3.9,3.7-7.7,5-11.5"/>
		<path class="st2" d="M658.8,598.5c0.3-3.9,1.2-7,2.3-10c1.1-3,2.5-5.7,4-8.2c1.5-2.6,3.3-5,5.3-7.4c2.1-2.4,4.3-4.7,7.6-6.9
			c1.1,3.8,0.9,7.3,0.3,10.6c-0.7,3.3-2,6.5-3.7,9.3c-1.7,2.8-3.9,5.4-6.4,7.6C665.5,595.7,662.6,597.6,658.8,598.5z"/>
	</g>
	<g>
		<path class="st2" d="M787.8,591.5c1.5-4.5,2.7-9.2,3.8-13.9c0.6-2.6,1-5.1,1.5-7.6"/>
		<path class="st2" d="M787.8,591.5c-1.6-2.5-2.2-4.5-2.6-6.5c-0.3-2-0.2-3.8,0.2-5.5c0.4-1.7,1.1-3.4,2.3-5
			c1.2-1.6,2.7-3.1,5.3-4.6c1.9,2.2,2.7,4.3,3.2,6.3c0.5,2,0.4,4-0.1,5.9c-0.5,1.9-1.3,3.6-2.6,5.2
			C792.2,589,790.5,590.5,787.8,591.5z"/>
	</g>
	<g>
		<path class="st2" d="M816,616.3c2.5,6.4,5.2,11.8,8.1,16c1.6,2.3,3.2,4.2,4.9,5.7"/>
		<path class="st2" d="M816,616.3c2.9,1.2,4.8,2.6,6.4,4.1c1.6,1.5,2.8,3.1,3.7,4.8c1,1.7,1.7,3.5,2.1,5.5c0.4,2.1,0.7,4.2,0.7,7.3
			c-3.2,0.2-5.6-0.9-7.7-2.2c-2-1.4-3.6-3.2-4.7-5.2c-1.1-2-1.8-4.2-2-6.6C814.4,621.6,814.6,619.1,816,616.3z"/>
	</g>
	<g>
		<path class="st4" d="M442.1,445c0.4,3.6,0.9,7.2,1.6,10.9c1.2,6.9,2.8,13.6,4.7,20.1"/>
		<path class="st4" d="M442.7,444.9c1.2,2.5,2.3,5,3.3,7.5l2.9,7.4c0.5,1.2,1.2,2.4,1.8,3.5c0.6,1.2,0.9,2.4,0.9,3.7
			c0,1.3-0.2,2.7-0.6,4.1c-0.4,1.5-1,3-2.2,4.7l-1.1,0.3c-1.9-0.8-3.2-1.9-4.3-3c-1.1-1.1-1.9-2.3-2.6-3.5c-0.6-1.2-0.9-2.6-0.9-4
			c0-1.4,0.2-2.8,0.2-4.2c0-1.4-0.1-2.7,0-4.1c0-1.4,0.2-2.8,0.3-4.1c0.3-2.8,0.6-5.5,1-8.2L442.7,444.9z"/>
	</g>
</g>
</svg>
