<?xml version="1.0" encoding="utf-8"?>
<!-- Generator: Adobe Illustrator 21.1.0, SVG Export Plug-In . SVG Version: 6.00 Build 0)  -->
<svg version="1.1" id="Layer_1" xmlns="http://www.w3.org/2000/svg" xmlns:xlink="http://www.w3.org/1999/xlink" x="0px" y="0px"
	 viewBox="0 0 300 300" style="enable-background:new 0 0 300 300;" xml:space="preserve">
<style type="text/css">
	.st0{stroke:#000000;stroke-linecap:square;stroke-miterlimit:2;}
	.st1{fill:#FFFFFF;stroke:#000000;stroke-linecap:square;stroke-miterlimit:2;}
</style>
<path class="st0" d="M203.60001,96.5L203.7,96.6l-7-0.2l-9.5-1.2c-4.7-0.3-8,2.9-11.7,5.10001l-0.10001-0.3
	C179.10001,97.5,183,94.7,187.8,94.7l7.2,0.9L203.60001,96.5z"/>
<path class="st0" d="M198.5,100.7l-7.3,3.4l-5.09999,2.8l-11,3.9L174.8,111.2c0.59999,0.9,2.59999,0.9,2.39999,2.5
	c-0.3-1.1-1.5-2-2.7-2.1l-2,1l-8.8,7.2c-1.89999,0.7-3.59999,2.1-5.59999,2.89999c1.29999-1.39999,3.2-2.2,5-3.39999
	c-0.40001-0.9-1.40001-1.4-2.3-2.2C160.2,116.9,159.7,116.7,159.2,116.3c1.40001,0.7,3.40001,0.7,4,2.5l0.40001,0.1l7.79999-6.3
	c0.5-0.8-0.5-1.5-0.7-2.4c-0.3,0.10001-0.59999-0.2-0.89999-0.39999c1,0.2,1.8,1,2.5,1.89999c3.09999-2.3,7.2-2.5,10.59999-4.39999
	C183.2,106.2,182.8,104.9,182.5,104h0.8l0.5,2.9l1.39999-0.4L195.8,100.9c1.2-0.1,2-1.1,3.39999-0.9L198.5,100.7z"/>
<path class="st0" d="M162.7,109l-6.2,4.8c-1.60001,3.89999-3.3,7.89999-4.60001,11.8l0.5,0.2l4.8-2.2c1.40001,0.8,2.5,2,3.5,3.4
	c-2.59999,2.2-6,3.60001-9.2,5c-1,0.60001-2.60001-1.3-2.60001,0.10001c3.20001,4.7,9.90001,2.79999,14.70001,2.29999L171,132.2
	l6.89999-4c0.70001-0.7,1.70001-1.39999,2.10001-2.2l10.89999-2.2c1.8-0.4,3.70001-1.5,5.40001-1.5c3.3-2.5,7.2-4.8,10.3-7.4
	C204.5,117.7,201.2,119.6,198.7,121.6H200.3l11.5-1.8c-1,1.2-3.3,1.1-4.90001,1.6c-4.5,0.2-9.09999,0.3-12.79999,2.3
	c2,1.3,3.39999,2.8,5.59999,3.60001l7.7,1.2l3.10001,0.2c-1.2,0.7-3,0.40001-4.7,0.3c-0.8-0.10001-1.7-0.5-2.60001-0.3
	c-0.09999,0.40001,0.5,1,0.90001,1.10001l5.59999,1.5c-1.3,0.39999-3.7-0.40001-5.2-0.90001c-0.2,1.5,1.60001,2.40001,2.7,3.10001
	l7.7,2.8c-4.39999-1.40001-10.79999-1.40001-12.09999-7.2C201.7,127.7,199.7,128.10001,198.39999,127c-1.7-1-3.29999-1.8-4.7-3.4
	c-1.3,0.3-2.59999,0.5-3.8,1.2C190,125.6,190.8,125.7,191,126.4c0.5,2.2,2.5,4.2,4.39999,5.1c-1.2,0.5-2.7-0.5-3.39999-1.7
	L190,125.7c-0.7,0.4-2,0.4-2.3,1.5c0.10001,0.7,0.40001,1.3,1,1.7L188.2,128.8c-0.3,1.2,1.10001,2.2,2.10001,2.7
	c0.39999,0.10001,1,0,1.5,0c-0.5,0.39999-1.60001,0.39999-2.2,0L188,130.10001C187.3,132.2,189.89999,132,190.60001,133.2
	c2.79999-0.59999,4.2,0.3,7.09999-0.39999c2.40001,0.3,4.90001,2,5.40001,4.5l-0.60001,1.8c1.7,0.09999,4.39999-1.5,5.89999,0.5
	c0.60001,1.09999,1.70001,2.5,1.10001,4C208.39999,147,205.10001,149.5,204,152.89999c2.5-0.5,4.89999-1.39999,7.10001-2.7l7.5-4.7
	c0.89999,0,1.59999-0.89999,2.39999-0.3l-11.10001,6.7c-2.5,1.60001-6.29999,0.70001-8.2,3.5V156c-3.2,2.10001-7.39999,4.2-11.2,2.2
	c-2.2-0.8-4.39999-1.89999-5.7-4.09999c-2.40001,0.5-4.8,2.5-7.5,1.09999c-2.40001-1.7-4.8-3.3-5.8-6.09999
	c-2-1-4.3-1.3-6.2-2.60001c3.2,0.39999,6.09999,3.5,9.3,1.39999l8.39999-5c1.5-1.29999,3-2.7,4.10001-4.2l-0.20001-0.09999l-5.2,3.5
	l-0.2-0.20001c2-0.59999,3.60001-2.79999,5.60001-4.09999c0.29999-0.40001,0-0.8-0.3-0.90001c-0.40001,0.40001-0.7-0.2-1-0.39999
	c-0.10001-1.10001-1.10001-1.7-1.7-2.39999C184.39999,134.39999,185,134.8,185.5,135c-0.10001-0.89999-0.89999-1.5-1.7-1.8
	c-0.60001,0.3-0.5,0.2-1.2,0.5c0.2-0.39999,1.5-1.2,2-0.3C186,134.5,186.89999,136,187.7,137.5c0.3,0.2,0.8-0.3,0.90001-0.60001
	c0.09999-1.79999-1.3-3.29999-2.60001-4.2c-6-2.2-11.3,2.2-16,5.10001l2.89999-2.40001v-0.5c-1.2,0.60001-2.29999-1-3.29999-1.5
	c-2,1.10001-5.90001,0-6.10001,3.20001l2.7,1.29999c-1.7-0.7-3.8-1.39999-5.5-2.7c-3.89999,0.5-9.09999,1-11.8-2.2
	c-0.39999-1.39999-1.5-3.2-3.2-3.60001c0.40001,0,0.90001,0.3,1.2-0.09999c0-0.2-0.2-0.3-0.29999-0.40001L147,128.7l0.10001,0.40001
	c1.5,1.09999,2.59999,2.59999,4.5,2.89999l8.2-4.6c0.8-0.5-0.10001-1.1-0.3-1.6c-1.39999-3.5-4.39999-0.7-6.39999-0.3l-2,0.9
	c0.5-2.1,1.89999-4.1,2-6.4c0.59999-0.3,0.29999-2,1.2-1.9l0.2-0.2l-0.5-0.1c0.2-0.60001,0.2-1.7,1-1.60001
	c-0.60001-0.5,0.3-1,0.3-1.7l8.7-7l0.39999,0.2l0.20001-0.6l8.89999-6c0.60001-0.4,0.89999-0.1,1.3-0.8l0.39999,0.1L162.7,109z"/>
<path class="st0" d="M101.3,110.9L100.7,111.7L97.3,119.6c-0.4,0.6-0.5,1.8-1.3,2.2l0.2,0.3l-2.7,6.4l-0.2-0.2
	c0.89999-1.7,1.3-4,2.5-5.3l-0.3-0.4c0.5-1.5,1.5-2.8,1.6-4.3c-0.8,0.39999-0.6,1.8-1.5,1.6l4.9-8.4c0.8,0.2-0.1-0.8,0.6-0.9l6.6,3
	L101.3,110.9z"/>
<polygon class="st0" points="142.10001,127.8 142.3,127.9 141.8,127.9 133.2,124.4 115.3,117.1 108.1,113.7 125.4,121 "/>
<path class="st1" d="M98.2,117c0.2,0.4-0.2-0.1-0.39999,0.1l0.2-0.4L98.2,117z"/>
<path class="st0" d="M92.8,126c-0.5-0.3-0.60001,0.4-0.9,0.7l0.4,0.3l-0.5,0.7l-0.3-0.3l3.8-7.3v1L92.8,126z"/>
<path class="st1" d="M187.3,125.3c-0.8,0.89999-2.40001,0.8-3.8,1.3l-0.39999-0.5C184.3,125.3,186,125.9,187.3,125.3z"/>
<path class="st0" d="M198.2,132.3c-0.59999,0.7-1.2-0.10001-1.7-0.3c-1.39999-1.5-1.5-3.5-2.2-5.3
	C196.8,127.7,195.39999,131.5,198.2,132.3z"/>
<path class="st1" d="M187.2,131.5c0.40001,0.2,0.10001,0.60001-0.09999,0.89999c-1.3-0.09999-2.60001-1-4-0.89999
	C180.5,131.60001,178.2,132.3,176,133.3c0.5-0.90001,2.3-1.3,2-2.10001c1.8-2.3,4.5-3.09999,6.89999-4.3
	C187.3,126.9,186.2,130,187.2,131.5z"/>
<path class="st0" d="M149.2,127.3L148.8,127.6L149.2,127.3z"/>
<path class="st1" d="M172.2,134.39999c-0.5-0.2-0.89999-0.7-1.5-0.89999c3.10001-2.3,7-3.7,9.90001-6.2h0.5L172.2,134.39999z"/>
<path class="st0" d="M91.4,128.10001c0.1,1.09999-1.5,1.29999-1.2,2.5L87,136.5v-0.3l-0.4,0.3l-0.1-0.10001c0.4,0,0.1-0.59999,0.4-1
	C87,135.5,87.1,135.7,87.2,135.5c-0.2-0.7,0.4-1.60001,0.8-2.2c0.2,0.09999,0.5,0.2,0.7-0.10001L88.4,132.8l2.2-4
	c0.1-0.10001,0.8,0,0.7-0.40001L91.1,128L91.4,128.10001z"/>
<path class="st0" d="M145.2,129.39999c-0.8-0.59999-2-0.7-2.5-1.39999C143.60001,128.3,144.8,128.8,145.2,129.39999z"/>
<path class="st0" d="M93.4,128.8c-0.8,2.2-1.5,4.09999-2.8,6.3c0.2,0.29999-0.1,0.7-0.4,0.7c0.3,0.39999-0.1,1.3-0.5,1.7
	c0.10001-2.2,1.5-3.39999,2.10001-5.7c1-0.3,0-1.10001,0.8-1.5L93.2,128.7L93.4,128.8z"/>
<path class="st0" d="M203.89999,133.7c-2-0.09999-4.2-0.59999-5.09999-2.3L198.5,130C199.7,132,201.7,133.3,203.89999,133.7z"/>
<path class="st1" d="M188.8,134.60001c-0.7,0.2-0.8-0.8-1.2-1.20001c-0.20001-0.29999,0.2-0.39999,0.39999-0.5
	C188.39999,133.39999,189,133.8,188.8,134.60001z"/>
<path class="st1" d="M201.10001,135.5c0,0.5,0.7,0.7,0.5,1.39999L197.8,134.5c-1.60001,1.3-2.5,3.2-4,4.60001l0.8-0.3l3.09999-3.7
	c1.40001,0.59999,3,1.29999,3.7,2.7c-1.59999,1.59999-2.29999,5.2-5.2,4.2l-0.3-0.2v0.2c0.70001,0.39999,2.20001,1.10001,3,0.10001
	c0.40001-0.5,0.8-1,1.20001-1.40001c-1.60001,2.90001-3.5,6.40001-6.70001,8.10001L192,148.3l0.8,0.8L181.5,154.5
	c-3,1.5-3.8-2.5-5.8-3.3c0.3,1.10001,1.5,2,2.10001,3l-0.5,0.2c-1.90001-1.5-3.90001-2.7-4.8-4.89999c2.10001-1,4.5-1.89999,6.5-3.3
	l6.89999-5.3L188.8,137.3C192.3,135.5,197.5,130.7,201.10001,135.5z"/>
<path class="st0" d="M178.7,137.10001c0,0.59999,0.3,1.09999-0.2,1.59999c-1-0.8,0-1.8,0.5-2.3l3.3-2.59999L178.7,137.10001z"/>
<path class="st1" d="M191.3,134.60001c-0.10001,0.29999-0.5,0.7-0.90001,0.5v-0.8L191.3,134.60001z"/>
<path class="st1" d="M162.7,136c-0.5,0.10001-1.09999-0.2-1.5-0.5c-0.3-0.39999,0.40001-0.3,0.60001-0.39999H162.7V136z"/>
<path class="st0" d="M78.3,152.2l-0.5,0.2c0.89999,1-2.3,3,0.5,3.40001l21.5,9.5l13.3,6l6.6,3.39999l0.5,0.7L148.3,176.5
	l3.8-0.10001l0.09999-1.7l3.10001-7.2h0.2c-0.3-0.5,0.2-1.10001,0.3-1.60001L156,165.8c0,1.2-0.60001,3-1.5,3.89999
	c0.3,1-0.7,1.60001-0.5,2.60001l2.3,0.3l12,0.5L181.39999,177.5v0.7L177.5,178l-25.7-1.10001l-24.60001-1l-9.3-0.2l-17.3-1l-7.5-0.8
	l-8.2-3.7c0-0.7-0.8-0.5-1-0.39999l-1.9-0.90001C82.1,168.8,82.3,168.8,82.5,168.8c0.2,0.7,0.5-0.10001,0.9,0l23.4,1.3
	c0.7,0,1.39999,0.39999,2.1,0l-1.4-1l-8.8-4L76.5,155.2L76.2,154.8l4.4-8.5c1.5-2.60001,2.9-5,4.5-7.60001
	c-0.1,0.10001,0,0.3,0.1,0.40001l0.4-0.5L85.2,138.5c0.10001-1.10001,0.9-0.7,1.4-1.39999L86.1,136.7L86.9,136.8L78.3,152.2z"/>
<path class="st0" d="M89.6,138.10001h-0.3V137.7C89.5,137.7,89.6,137.89999,89.6,138.10001z"/>
<path class="st0" d="M167.5,139.39999l-1.39999,3.3c0.29999-1.2,0.59999-2.59999,1.39999-3.59999L166.8,138.2
	C167.39999,138.2,168,138.8,167.5,139.39999z"/>
<path class="st0" d="M84.3,151.7c0.2,1.10001-2.4,3-0.2,3.60001l51.4,18.5h-0.60001L106,163.60001h-0.1l1,0.79999l11.3,4.8h-0.6
	L97.6,160.8L83.1,155c-0.7-0.7,0.1-1.8,0.3-2.7c0.7-1.60001,1.6-3.5,2.1-4.7l3.5-9.20001v1.20001L84.3,151.7z"/>
<path class="st0" d="M181.2,141.8c-1.09999-0.7-2.09999-1.5-2.5-2.7l0.2-0.3L181.2,141.8z"/>
<path class="st1" d="M209.10001,141.3c0,0.09999,0.2,0.3,0,0.39999c-0.20001,0.3-0.60001-0.09999-0.8-0.09999l0.5,0.7
	c-0.7,0.59999-1.2,1.8-1.8,2.59999c-0.89999,0.60001-1.2,2.3-2.60001,1.8c-0.79999-0.5-1-0.89999-1.79999-1.39999
	c0.5,1,1.59999,1.8,2.79999,2c1.70001-0.8,2.3-2.8,3.5-4.10001c-1,3.7-4.79999,6.7-6.7,10.7l-2.7-0.2c0,0.40001,0.8,0.7,1.3,0.8
	l0.89999-0.2l-0.3,1c-2.5,1.2-5.5,4-8.2,1.8L193.3,157.7l-0.8-0.3l0.10001,0.5C189.89999,157.3,187,156.5,185.39999,154
	L187,152.89999l7.89999-4.09999L198,145.39999c-0.10001-0.09999-0.2-0.09999-0.2-0.29999L198.2,145.2l4-5.39999
	C204.2,138.5,208.5,138.10001,209.10001,141.3z"/>
<path class="st0" d="M194.60001,141l-0.8-0.89999C194.10001,140.39999,194.60001,140.5,194.60001,141z"/>
<path class="st0" d="M208,141.60001c-0.8-0.40001-2.2-2.40001-2.89999-0.70001C206,138.8,207.3,141.39999,208,141.60001z"/>
<path class="st0" d="M195.89999,141.7c-0.5,0.40001-0.79999-0.2-1-0.5C195.3,141.10001,195.5,141.7,195.89999,141.7z"/>
<path class="st0" d="M202.10001,145c0.29999-1.3,1.5-2.5,2.7-3.60001C203.89999,142.5,202.60001,143.60001,202.10001,145z"/>
<path class="st0" d="M171.5,147.7c-1.60001-1.2-3.39999-2.59999-3.3-4.89999C168.39999,144.60001,169.8,146.3,171.5,147.7z"/>
<path class="st0" d="M164.8,145.8l-4.5,11h-0.2c0.89999-3.40001,2.7-6.3,3.79999-9.8c0.70001-0.10001,0.10001-0.8,0.5-1.2
	c0.60001-0.90001,0.70001-2.2,1.70001-2.7L164.8,145.8z"/>
<path class="st0" d="M189.60001,145.8l2.2,2.39999L189.60001,145.8z"/>
<path class="st1" d="M80.3,148l-0.3,0.3v-0.5C80.3,147.8,80.1,147.89999,80.3,148z"/>
<polygon class="st1" points="78.7,151 78.6,150.39999 78.7,150.8 "/>
<path class="st0" d="M201.60001,153.10001C200.2,153.2,199,152.8,198,152.10001
	C199.10001,152.60001,200.5,152.89999,201.60001,153.10001z"/>
<path class="st0" d="M192.7,156.7c-0.5-0.5-1.5-1.59999-1.59999-2.59999L192.7,156.7z"/>
<path class="st0" d="M191.10001,155.89999l0.7,0.90001L191.10001,155.89999z"/>
<path class="st0" d="M192.89999,156.8l0.20001,0.3L192.89999,156.8z"/>
<polygon class="st0" points="159.60001,158 159.8,157.3 159.8,158 "/>
<path class="st0" d="M159.5,158.39999c-1.2,2.20001-1.89999,5.20001-3.3,7.3c0.3-2.5,2.40001-4.8,3-7.3H159.5z"/>
<path class="st0" d="M130.60001,174.60001C130.7,174.5,130.8,174.7,130.89999,174.7L127.4,173.3l-8.7-3.90001L130.60001,174.60001z"
	/>
<path class="st1" d="M154.3,173.39999c-0.2,0.8-0.90001,0.10001-1.3,0C153.10001,172.7,154,172.60001,154.3,173.39999z"/>
<path class="st0" d="M135.89999,173.89999l1.5,0.5L135.89999,173.89999z"/>
<polygon class="st1" points="152.5,175.7 152.39999,175 152.60001,175.5 "/>
<path class="st0" d="M107.8,182.3c-2.10001,0.3-4.60001,0.2-6.7,0.09999l15.2-0.5h5.1L143.3,182.3H107.8z"/>
<path class="st0" d="M143.8,182.2L155.2,182.5L143.8,182.2z"/>
<polygon class="st0" points="165.2,182.5 155.5,182.5 157.10001,182.39999 164.89999,182.5 "/>
<path class="st1" d="M158.2,182.5h2H158.2z"/>
<path class="st0" d="M166,182.5h0.3H166z"/>
<path class="st0" d="M172.8,182.60001l0.5,0.09999L172.8,182.60001z"/>
<polygon class="st0" points="204,183.60001 177,182.8 176.60001,182.8 203.89999,183.39999 "/>
<path class="st0" d="M120.9,200.8l0.2,0.09999L122,199l2.8-9h3.2l-1.3,4.8L123.4,206.2l-4.7-0.09999l-4-16.20001
	c1.2-0.29999,2.2-0.29999,3.5,0L120.9,200.8z"/>
<path class="st0" d="M151.5,193.10001c-1.2,0.5-3.60001-0.8-3.60001,1.09999l-0.2,12.2L144.8,206.3v-12.5
	c0.09999-1.3-1.40001-0.5-2-0.7l-2-0.20001V190l10.5,0.2L151.5,193.10001z"/>
<path class="st0" d="M137,191.39999c1.3,1.3,1.39999,3.10001,1.89999,4.70001c-1,0,0.3,0.39999,0.10001,0.79999
	c-0.39999,3.40001-0.3,7.8-4,9.20001c-1.7,0.5-3.39999-0.40001-4.8-1.3c-2.3-2.7-1.89999-7-1.39999-10.40001
	C129.39999,192.5,130.7,190.5,132.8,190C134.39999,190,135.8,190.39999,137,191.39999z"/>
<path class="st0" d="M163.3,193.2l-5.90001,0.3c-0.39999,1-0.2,2.5-0.2,3.60001c1.3,0.5,2.60001,0,3.8,0.39999
	c0.39999,0.89999,0,1.89999,0,2.8l-3.60001,0.2c-0.39999,0.8-0.2,2-0.2,2.89999c2,0.40001,3.90001,0.3,6,0.40001v2.7l-9,0.10001
	L154.3,190.2l1.2-0.2l7.89999,0.39999L163.3,193.2z"/>
<path class="st1" d="M134.7,195.39999c0.3,2.3,0.60001,5.60001-1.3,7.10001c-1.7-0.89999-1.29999-3.60001-1.29999-5.3
	c0.09999-1.2,0.39999-2.3,1.2-3.2C134.10001,193.89999,134.7,194.7,134.7,195.39999z"/>
</svg>
