<?xml version="1.0" encoding="utf-8"?>
<!-- Generator: Adobe Illustrator 21.1.0, SVG Export Plug-In . SVG Version: 6.00 Build 0)  -->
<svg version="1.1" id="Layer_1" xmlns="http://www.w3.org/2000/svg" xmlns:xlink="http://www.w3.org/1999/xlink" x="0px" y="0px"
	 viewBox="0 0 300 300" style="enable-background:new 0 0 300 300;" xml:space="preserve">
<style type="text/css">
	.st0{fill:#B3B3B3;}
	.st1{fill:#FFFFFF;stroke:#000000;stroke-width:0.5;stroke-miterlimit:10;}
	.st2{fill:#FFFFFF;}
	.st3{fill:none;stroke:#000000;stroke-width:2;stroke-miterlimit:10;}
	.st4{fill:#FFFFFF;stroke:#000000;stroke-width:2;stroke-miterlimit:10;}
	.st5{stroke:#000000;stroke-width:0.5;stroke-miterlimit:10;}
</style>
<g>
	<circle class="st0" cx="157.1" cy="150.7" r="120"/>
	<path class="st0" d="M157.1,150.7"/>
</g>
<polyline class="st1" points="203,249.8 219.2,279 227.8,288.5 225.1,276.3 208,247.1 "/>
<g>
	<circle cx="152.6" cy="144.4" r="120"/>
	<path d="M152.6,144.4"/>
</g>
<g>
	<circle class="st2" cx="152.6" cy="144.4" r="100.8"/>
	<path class="st2" d="M152.6,144.4"/>
</g>
<g>
	<circle class="st3" cx="152.3" cy="144.9" r="96.8"/>
	<path class="st3" d="M152.3,144.9"/>
</g>
<polygon class="st4" points="74.9,101.6 87.8,114.8 88.7,96.8 102.5,90.2 87.5,82.9 86.2,66.7 75.7,79.1 59,77.3 67,91.5 
	57.9,105.2 "/>
<polygon class="st4" points="128.1,67.9 146.2,71.5 136.8,56.1 144.5,42.8 127.9,45.3 117.7,32.6 116.1,48.8 101.2,56.7 115.9,63.9 
	116.1,80.4 "/>
<polygon class="st4" points="177.6,68.4 189.9,82.2 191.6,64.2 205.7,58.2 191,50.2 190.4,34 179.4,45.9 162.8,43.3 170.1,57.9 
	160.4,71.2 "/>
<polygon class="st4" points="231.5,103.6 218.2,116.5 217.7,98.4 204.1,91.5 219.3,84.5 221,68.4 231.2,81 247.9,79.6 239.6,93.6 
	248.4,107.6 "/>
<line class="st3" x1="70.3" y1="151.2" x2="232.7" y2="151.2"/>
<path class="st5" d="M91.9,151.2v69.3c5.2,3.8,13.6,9.4,19.8,12.1v-81.4H91.9z"/>
<path class="st5" d="M73,200.1v-47.7H56.1c1.4,13.1,1.4,13.1,1.4,13.1S64,189.3,73,200.1z"/>
<polygon class="st4" points="64.5,153.6 82.7,156.8 72.9,141.6 80.2,128.2 63.8,131 53.3,118.7 52,134.9 37.3,143.1 52.1,150 
	52.7,166.5 "/>
<path class="st5" d="M127.2,151.2v87.1c6.5,2,13.3,2.5,19.8,3.1v-90.2H127.2z"/>
<path class="st5" d="M160.7,151.2v90c7.7,0,13.3-2.2,19.8-3.6v-86.4H160.7z"/>
<path class="st5" d="M195.8,151.2v80.1c7.9-4,13.9-8.5,19.8-13v-67H195.8z"/>
<path class="st5" d="M232,153.7l16.7-0.2c-3.8,18-0.7,19.6-16.7,45.9V153.7z"/>
<polygon class="st4" points="240.9,155.9 222.6,158.8 232.7,143.8 225.6,130.2 242,133.3 252.7,121.1 253.7,137.4 268.2,145.8 
	253.3,152.5 252.4,168.9 "/>
<path class="st2" d="M181.4,254.3c-4.1,1.3-6.3,1.8-7.2-0.5s-1.8-4,3.6-5.4c28.8-9,47.7-23.4,62.5-41.9c2.7-4,10.8-6.3,4.5,1.8
	C230.5,229.1,216.5,241.7,181.4,254.3z"/>
<path d="M94.9,116.2h4.6l8.9,26.4l8.8-26.4h4.7l-11.3,31h-4.5L94.9,116.2z"/>
<path d="M131.3,140.8c-1.7-2.4-2.6-5.2-2.6-8.7c0-4.3,1-7.5,3-9.7c2-2.2,4.6-3.3,7.8-3.3c3.3,0,5.9,1.1,7.8,3.3
	c1.9,2.2,2.9,5.2,2.9,8.8c0,3.4-0.8,6.5-2.5,9.1c-1.7,2.7-4.3,4-8,4C135.8,144.3,133,143.2,131.3,140.8z M127.4,121.1
	c-2.1,3-3.1,6.6-3.1,10.8c0,4.6,1.2,8.5,3.6,11.5c2.7,3.2,6.5,4.7,11.2,4.7c5.1,0,9-1.8,11.8-5.4c2.3-3.1,3.5-6.9,3.5-11.5
	c0-4.3-1-7.8-3.1-10.5c-2.6-3.5-6.7-5.3-12.2-5.3C134.1,115.4,130.1,117.3,127.4,121.1z M139.4,115.4"/>
<path d="M156.9,116.2h25.1v3.7h-10.4v27.3h-4.3v-27.3h-10.4V116.2z"/>
<path d="M197.8,116.2 M209.2,147.2v-3.7h-18.8V133h17.1v-3.6h-17.1V120h18.5v-3.8h-22.6v31H209.2z"/>
</svg>
