<?xml version="1.0" encoding="utf-8"?>
<!-- Generator: Adobe Illustrator 21.1.0, SVG Export Plug-In . SVG Version: 6.00 Build 0)  -->
<svg version="1.1" id="Layer_1" xmlns="http://www.w3.org/2000/svg" xmlns:xlink="http://www.w3.org/1999/xlink" x="0px" y="0px"
	 viewBox="0 0 146.3 112.9" style="enable-background:new 0 0 146.3 112.9;" xml:space="preserve">
<style type="text/css">
	.st0{stroke:#000000;stroke-linecap:square;stroke-miterlimit:2;}
	.st1{fill:#FFFFFF;stroke:#000000;stroke-linecap:square;stroke-miterlimit:2;}
</style>
<path class="st0" d="M128,2.3L128,2.3l-6.9-0.1L111.6,1c-4.7-0.3-8,2.9-11.7,5.1l-0.1-0.3c3.7-2.5,7.6-5.3,12.4-5.3l7.2,0.9L128,2.3
	z"/>
<path class="st0" d="M122.9,6.5l-7.3,3.4l-5.1,2.8l-11,3.9L99.2,17c0.6,0.9,2.6,0.9,2.4,2.5c-0.3-1.1-1.5-2-2.7-2.1l-2,1l-8.8,7.2
	c-1.9,0.7-3.6,2.1-5.6,2.9c1.3-1.4,3.2-2.2,5-3.4c-0.4-0.9-1.4-1.4-2.3-2.2c-0.6-0.2-1.1-0.4-1.6-0.8c1.4,0.7,3.4,0.7,4,2.5l0.4,0.1
	l7.8-6.3c0.5-0.8-0.5-1.5-0.7-2.4c-0.3,0.1-0.6-0.2-0.9-0.4c1,0.2,1.8,1,2.5,1.9c3.1-2.3,7.2-2.5,10.6-4.4c0.3-1.1-0.1-2.4-0.4-3.3
	h0.8l0.5,2.9l1.4-0.4l10.6-5.6c1.2-0.1,2-1.1,3.4-0.9L122.9,6.5z"/>
<path class="st0" d="M87.1,14.8l-6.2,4.8c-1.6,3.9-3.3,7.9-4.6,11.8l0.5,0.2l4.8-2.2c1.4,0.8,2.5,2,3.5,3.4c-2.6,2.2-6,3.6-9.2,5
	c-1,0.6-2.6-1.3-2.6,0.1c3.2,4.7,9.9,2.8,14.7,2.3l7.4-2.2l6.9-4c0.7-0.7,1.7-1.4,2.1-2.2l10.9-2.2c1.8-0.4,3.7-1.5,5.4-1.5
	c3.3-2.5,7.2-4.8,10.3-7.4c-2.1,2.8-5.4,4.7-7.9,6.7h1.6l11.5-1.8c-1,1.2-3.3,1.1-4.9,1.6c-4.5,0.2-9.1,0.3-12.8,2.3
	c2,1.3,3.4,2.8,5.6,3.6l7.7,1.2l3.1,0.2c-1.2,0.7-3,0.4-4.7,0.3c-0.8-0.1-1.7-0.5-2.6-0.3c-0.1,0.4,0.5,1,0.9,1.1l5.6,1.5
	c-1.3,0.4-3.7-0.4-5.2-0.9c-0.2,1.5,1.6,2.4,2.7,3.1l7.7,2.8c-4.4-1.4-10.8-1.4-12.1-7.2c-1.1-1.4-3.1-1-4.4-2.1
	c-1.7-1-3.3-1.8-4.7-3.4c-1.3,0.3-2.6,0.5-3.8,1.2c0.1,0.8,0.9,0.9,1.1,1.6c0.5,2.2,2.5,4.2,4.4,5.1c-1.2,0.5-2.7-0.5-3.4-1.7
	l-2-4.1c-0.7,0.4-2,0.4-2.3,1.5c0.1,0.7,0.4,1.3,1,1.7l-0.5-0.1c-0.3,1.2,1.1,2.2,2.1,2.7c0.4,0.1,1,0,1.5,0c-0.5,0.4-1.6,0.4-2.2,0
	l-1.6-1.4c-0.7,2.1,1.9,1.9,2.6,3.1c2.8-0.6,4.2,0.3,7.1-0.4c2.4,0.3,4.9,2,5.4,4.5l-0.6,1.8c1.7,0.1,4.4-1.5,5.9,0.5
	c0.6,1.1,1.7,2.5,1.1,4c-1.1,3.4-4.4,5.9-5.5,9.3c2.5-0.5,4.9-1.4,7.1-2.7l7.5-4.7c0.9,0,1.6-0.9,2.4-0.3l-11.1,6.7
	c-2.5,1.6-6.3,0.7-8.2,3.5v0.6c-3.2,2.1-7.4,4.2-11.2,2.2c-2.2-0.8-4.4-1.9-5.7-4.1c-2.4,0.5-4.8,2.5-7.5,1.1
	c-2.4-1.7-4.8-3.3-5.8-6.1c-2-1-4.3-1.3-6.2-2.6c3.2,0.4,6.1,3.5,9.3,1.4l8.4-5c1.5-1.3,3-2.7,4.1-4.2l-0.2-0.1l-5.2,3.5l-0.2-0.2
	c2-0.6,3.6-2.8,5.6-4.1c0.3-0.4,0-0.8-0.3-0.9c-0.4,0.4-0.7-0.2-1-0.4c-0.1-1.1-1.1-1.7-1.7-2.4c0.3,0.3,0.9,0.7,1.4,0.9
	c-0.1-0.9-0.9-1.5-1.7-1.8c-0.6,0.3-0.5,0.2-1.2,0.5c0.2-0.4,1.5-1.2,2-0.3c1.4,1.1,2.3,2.6,3.1,4.1c0.3,0.2,0.8-0.3,0.9-0.6
	c0.1-1.8-1.3-3.3-2.6-4.2c-6-2.2-11.3,2.2-16,5.1l2.9-2.4v-0.5c-1.2,0.6-2.3-1-3.3-1.5c-2,1.1-5.9,0-6.1,3.2l2.7,1.3
	c-1.7-0.7-3.8-1.4-5.5-2.7c-3.9,0.5-9.1,1-11.8-2.2c-0.4-1.4-1.5-3.2-3.2-3.6c0.4,0,0.9,0.3,1.2-0.1c0-0.2-0.2-0.3-0.3-0.4l0.4-0.2
	l0.1,0.4c1.5,1.1,2.6,2.6,4.5,2.9l8.2-4.6c0.8-0.5-0.1-1.1-0.3-1.6c-1.4-3.5-4.4-0.7-6.4-0.3l-2,0.9c0.5-2.1,1.9-4.1,2-6.4
	c0.6-0.3,0.3-2,1.2-1.9l0.2-0.2l-0.5-0.1c0.2-0.6,0.2-1.7,1-1.6c-0.6-0.5,0.3-1,0.3-1.7l8.7-7l0.4,0.2l0.2-0.6l8.9-6
	c0.6-0.4,0.9-0.1,1.3-0.8l0.4,0.1L87.1,14.8z"/>
<path class="st0" d="M25.7,16.7l-0.6,0.8l-3.4,7.9c-0.4,0.6-0.5,1.8-1.3,2.2l0.2,0.3l-2.7,6.4l-0.2-0.2c0.9-1.7,1.3-4,2.5-5.3
	l-0.3-0.4c0.5-1.5,1.5-2.8,1.6-4.3c-0.8,0.4-0.6,1.8-1.5,1.6l4.9-8.4c0.8,0.2-0.1-0.8,0.6-0.9l6.6,3L25.7,16.7z"/>
<polygon class="st0" points="66.5,33.6 66.7,33.7 66.2,33.7 57.6,30.2 39.7,22.9 32.5,19.5 49.8,26.8 "/>
<path class="st1" d="M22.6,22.8c0.2,0.4-0.2-0.1-0.4,0.1l0.2-0.4L22.6,22.8z"/>
<path class="st0" d="M17.2,31.8c-0.5-0.3-0.6,0.4-0.9,0.7l0.4,0.3l-0.5,0.7l-0.3-0.3l3.8-7.3v1L17.2,31.8z"/>
<path class="st1" d="M111.7,31.1c-0.8,0.9-2.4,0.8-3.8,1.3l-0.4-0.5C108.7,31.1,110.4,31.7,111.7,31.1z"/>
<path class="st0" d="M122.6,38.1c-0.6,0.7-1.2-0.1-1.7-0.3c-1.4-1.5-1.5-3.5-2.2-5.3C121.2,33.5,119.8,37.3,122.6,38.1z"/>
<path class="st1" d="M111.6,37.3c0.4,0.2,0.1,0.6-0.1,0.9c-1.3-0.1-2.6-1-4-0.9c-2.6,0.1-4.9,0.8-7.1,1.8c0.5-0.9,2.3-1.3,2-2.1
	c1.8-2.3,4.5-3.1,6.9-4.3C111.7,32.7,110.6,35.8,111.6,37.3z"/>
<path class="st0" d="M73.6,33.1l-0.4,0.3L73.6,33.1z"/>
<path class="st1" d="M96.6,40.2c-0.5-0.2-0.9-0.7-1.5-0.9c3.1-2.3,7-3.7,9.9-6.2h0.5L96.6,40.2z"/>
<path class="st0" d="M15.8,33.9c0.1,1.1-1.5,1.3-1.2,2.5l-3.2,5.9V42L11,42.3l-0.1-0.1c0.4,0,0.1-0.6,0.4-1c0.1,0.1,0.2,0.3,0.3,0.1
	c-0.2-0.7,0.4-1.6,0.8-2.2c0.2,0.1,0.5,0.2,0.7-0.1l-0.3-0.4l2.2-4c0.1-0.1,0.8,0,0.7-0.4l-0.2-0.4L15.8,33.9z"/>
<path class="st0" d="M69.6,35.2c-0.8-0.6-2-0.7-2.5-1.4C68,34.1,69.2,34.6,69.6,35.2z"/>
<path class="st0" d="M17.8,34.6c-0.8,2.2-1.5,4.1-2.8,6.3c0.2,0.3-0.1,0.7-0.4,0.7c0.3,0.4-0.1,1.3-0.5,1.7c0.1-2.2,1.5-3.4,2.1-5.7
	c1-0.3,0-1.1,0.8-1.5l0.6-1.6L17.8,34.6z"/>
<path class="st0" d="M128.3,39.5c-2-0.1-4.2-0.6-5.1-2.3l-0.3-1.4C124.1,37.8,126.1,39.1,128.3,39.5z"/>
<path class="st1" d="M113.2,40.4c-0.7,0.2-0.8-0.8-1.2-1.2c-0.2-0.3,0.2-0.4,0.4-0.5C112.8,39.2,113.4,39.6,113.2,40.4z"/>
<path class="st1" d="M125.5,41.3c0,0.5,0.7,0.7,0.5,1.4l-3.8-2.4c-1.6,1.3-2.5,3.2-4,4.6l0.8-0.3l3.1-3.7c1.4,0.6,3,1.3,3.7,2.7
	c-1.6,1.6-2.3,5.2-5.2,4.2l-0.3-0.2v0.2c0.7,0.4,2.2,1.1,3,0.1c0.4-0.5,0.8-1,1.2-1.4c-1.6,2.9-3.5,6.4-6.7,8.1l-1.4-0.5l0.8,0.8
	l-11.3,5.4c-3,1.5-3.8-2.5-5.8-3.3c0.3,1.1,1.5,2,2.1,3l-0.5,0.2c-1.9-1.5-3.9-2.7-4.8-4.9c2.1-1,4.5-1.9,6.5-3.3l6.9-5.3l2.9-3.6
	C116.7,41.3,121.9,36.5,125.5,41.3z"/>
<path class="st0" d="M103.1,42.9c0,0.6,0.3,1.1-0.2,1.6c-1-0.8,0-1.8,0.5-2.3l3.3-2.6L103.1,42.9z"/>
<path class="st1" d="M115.7,40.4c-0.1,0.3-0.5,0.7-0.9,0.5v-0.8L115.7,40.4z"/>
<path class="st1" d="M87.1,41.8c-0.5,0.1-1.1-0.2-1.5-0.5c-0.3-0.4,0.4-0.3,0.6-0.4h0.9V41.8z"/>
<path class="st0" d="M2.7,58l-0.5,0.2c0.9,1-2.3,3,0.5,3.4l21.5,9.5l13.3,6l6.6,3.4l0.5,0.7l28.1,1.1l3.8-0.1l0.1-1.7l3.1-7.2h0.2
	c-0.3-0.5,0.2-1.1,0.3-1.6l0.2-0.1c0,1.2-0.6,3-1.5,3.9c0.3,1-0.7,1.6-0.5,2.6l2.3,0.3l12,0.5l13.1,4.4V84l-3.9-0.2l-25.7-1.1
	l-24.6-1l-9.3-0.2l-17.3-1l-7.5-0.8L9.3,76c0-0.7-0.8-0.5-1-0.4l-1.9-0.9c0.1-0.1,0.3-0.1,0.5-0.1c0.2,0.7,0.5-0.1,0.9,0l23.4,1.3
	c0.7,0,1.4,0.4,2.1,0l-1.4-1l-8.8-4L0.9,61l-0.3-0.4L5,52.1c1.5-2.6,2.9-5,4.5-7.6c-0.1,0.1,0,0.3,0.1,0.4l0.4-0.5l-0.4-0.1
	c0.1-1.1,0.9-0.7,1.4-1.4l-0.5-0.4l0.8,0.1L2.7,58z"/>
<path class="st0" d="M14,43.9h-0.3v-0.4C13.9,43.5,14,43.7,14,43.9z"/>
<path class="st0" d="M91.9,45.2l-1.4,3.3c0.3-1.2,0.6-2.6,1.4-3.6L91.2,44C91.8,44,92.4,44.6,91.9,45.2z"/>
<path class="st0" d="M8.7,57.5c0.2,1.1-2.4,3-0.2,3.6l51.4,18.5h-0.6L30.4,69.4h-0.1l1,0.8L42.6,75H42l-20-8.4L7.5,60.8
	c-0.7-0.7,0.1-1.8,0.3-2.7c0.7-1.6,1.6-3.5,2.1-4.7l3.5-9.2v1.2L8.7,57.5z"/>
<path class="st0" d="M105.6,47.6c-1.1-0.7-2.1-1.5-2.5-2.7l0.2-0.3L105.6,47.6z"/>
<path class="st1" d="M133.5,47.1c0,0.1,0.2,0.3,0,0.4c-0.2,0.3-0.6-0.1-0.8-0.1l0.5,0.7c-0.7,0.6-1.2,1.8-1.8,2.6
	c-0.9,0.6-1.2,2.3-2.6,1.8c-0.8-0.5-1-0.9-1.8-1.4c0.5,1,1.6,1.8,2.8,2c1.7-0.8,2.3-2.8,3.5-4.1c-1,3.7-4.8,6.7-6.7,10.7l-2.7-0.2
	c0,0.4,0.8,0.7,1.3,0.8l0.9-0.2l-0.3,1c-2.5,1.2-5.5,4-8.2,1.8l0.1,0.6l-0.8-0.3l0.1,0.5c-2.7-0.6-5.6-1.4-7.2-3.9l1.6-1.1l7.9-4.1
	l3.1-3.4c-0.1-0.1-0.2-0.1-0.2-0.3l0.4,0.1l4-5.4C128.6,44.3,132.9,43.9,133.5,47.1z"/>
<path class="st0" d="M119,46.8l-0.8-0.9C118.5,46.2,119,46.3,119,46.8z"/>
<path class="st0" d="M132.4,47.4c-0.8-0.4-2.2-2.4-2.9-0.7C130.4,44.6,131.7,47.2,132.4,47.4z"/>
<path class="st0" d="M120.3,47.5c-0.5,0.4-0.8-0.2-1-0.5C119.7,46.9,119.9,47.5,120.3,47.5z"/>
<path class="st0" d="M126.5,50.8c0.3-1.3,1.5-2.5,2.7-3.6C128.3,48.3,127,49.4,126.5,50.8z"/>
<path class="st0" d="M95.9,53.5c-1.6-1.2-3.4-2.6-3.3-4.9C92.8,50.4,94.2,52.1,95.9,53.5z"/>
<path class="st0" d="M89.2,51.6l-4.5,11h-0.2c0.9-3.4,2.7-6.3,3.8-9.8c0.7-0.1,0.1-0.8,0.5-1.2c0.6-0.9,0.7-2.2,1.7-2.7L89.2,51.6z"
	/>
<path class="st0" d="M114,51.6l2.2,2.4L114,51.6z"/>
<path class="st1" d="M4.7,53.8l-0.3,0.3v-0.5C4.7,53.6,4.5,53.7,4.7,53.8z"/>
<polygon class="st1" points="3.1,56.8 3,56.2 3.1,56.6 "/>
<path class="st0" d="M126,58.9c-1.4,0.1-2.6-0.3-3.6-1C123.5,58.4,124.9,58.7,126,58.9z"/>
<path class="st0" d="M117.1,62.5c-0.5-0.5-1.5-1.6-1.6-2.6L117.1,62.5z"/>
<path class="st0" d="M115.5,61.7l0.7,0.9L115.5,61.7z"/>
<path class="st0" d="M117.3,62.6l0.2,0.3L117.3,62.6z"/>
<polygon class="st0" points="84,63.8 84.2,63.1 84.2,63.8 "/>
<path class="st0" d="M83.9,64.2c-1.2,2.2-1.9,5.2-3.3,7.3c0.3-2.5,2.4-4.8,3-7.3H83.9z"/>
<path class="st0" d="M55,80.4c0.1-0.1,0.2,0.1,0.3,0.1l-3.5-1.4l-8.7-3.9L55,80.4z"/>
<path class="st1" d="M78.7,79.2c-0.2,0.8-0.9,0.1-1.3,0C77.5,78.5,78.4,78.4,78.7,79.2z"/>
<path class="st0" d="M60.3,79.7l1.5,0.5L60.3,79.7z"/>
<polygon class="st1" points="76.9,81.5 76.8,80.8 77,81.3 "/>
<path class="st0" d="M32.2,88.1c-2.1,0.3-4.6,0.2-6.7,0.1l15.2-0.5h5.1l21.9,0.4H32.2z"/>
<path class="st0" d="M68.2,88l11.4,0.3L68.2,88z"/>
<polygon class="st0" points="89.6,88.3 79.9,88.3 81.5,88.2 89.3,88.3 "/>
<path class="st1" d="M82.6,88.3h2H82.6z"/>
<path class="st0" d="M90.4,88.3h0.3H90.4z"/>
<path class="st0" d="M97.2,88.4l0.5,0.1L97.2,88.4z"/>
<polygon class="st0" points="128.4,89.4 101.4,88.6 101,88.6 128.3,89.2 "/>
<path class="st0" d="M45.3,106.6l0.2,0.1l0.9-1.9l2.8-9h3.2l-1.3,4.8L47.8,112l-4.7-0.1l-4-16.2c1.2-0.3,2.2-0.3,3.5,0L45.3,106.6z"
	/>
<path class="st0" d="M75.9,98.9c-1.2,0.5-3.6-0.8-3.6,1.1l-0.2,12.2l-2.9-0.1V99.6c0.1-1.3-1.4-0.5-2-0.7l-2-0.2v-2.9L75.7,96
	L75.9,98.9z"/>
<path class="st0" d="M61.4,97.2c1.3,1.3,1.4,3.1,1.9,4.7c-1,0,0.3,0.4,0.1,0.8c-0.4,3.4-0.3,7.8-4,9.2c-1.7,0.5-3.4-0.4-4.8-1.3
	c-2.3-2.7-1.9-7-1.4-10.4c0.6-1.9,1.9-3.9,4-4.4C58.8,95.8,60.2,96.2,61.4,97.2z"/>
<path class="st0" d="M87.7,99l-5.9,0.3c-0.4,1-0.2,2.5-0.2,3.6c1.3,0.5,2.6,0,3.8,0.4c0.4,0.9,0,1.9,0,2.8l-3.6,0.2
	c-0.4,0.8-0.2,2-0.2,2.9c2,0.4,3.9,0.3,6,0.4v2.7l-9,0.1L78.7,96l1.2-0.2l7.9,0.4L87.7,99z"/>
<path class="st1" d="M59.1,101.2c0.3,2.3,0.6,5.6-1.3,7.1c-1.7-0.9-1.3-3.6-1.3-5.3c0.1-1.2,0.4-2.3,1.2-3.2
	C58.5,99.7,59.1,100.5,59.1,101.2z"/>
</svg>
